<?xml version="1.0" encoding="UTF-8"?>
<svg id="Layer_1"  width="300" data-name="Layer 1" xmlns="http://www.w3.org/2000/svg" xmlns:xlink="http://www.w3.org/1999/xlink" viewBox="0 0 139.57 34.76">
  <defs>
    <style>
      .cls-1 {
        fill: contain;
      }

      .cls-2 {
        clip-path: url(#clippath);
      }

      .cls-3, .cls-4 {
        fill: #fff;
      }

      .cls-4 {
        fill-rule: evenodd;
      }
    </style>
    <clipPath id="clippath">
      <rect class="cls-1" x="16.87" y=".56" width="5.12" height="10.02"/>
    </clipPath>
  </defs>
  <polygon class="cls-1" points="16.87 3.47 16.87 12.81 21.99 10.58 21.99 3.47 16.87 3.47"/>
  <path id="path1278" class="cls-4" d="m17.06,4.25c0-.15-.17-.28-.37-.28h-3.95c-.21,0-.38.12-.38.28v16.31h4.7V4.25h0Z"/>
  <g id="g1286">
    <path id="path1282" class="cls-4" d="m64.34,3.17L60.95.11c-.18-.16-.46-.14-.64.06l-18.46,20.38,4.03,3.65L64.34,3.81c.17-.19.17-.48,0-.64h0Z"/>
    <path id="path1284" class="cls-4" d="m41.98,3.17L45.37.11c.18-.16.46-.14.64.06l18.46,20.38-4.03,3.65L41.98,3.81c-.17-.19-.17-.48,0-.64h0Z"/>
  </g>
  <g id="g1290">
    <path id="path1288" class="cls-3" d="m65.52,9.28c0-2.06-.07-3.78-.14-5.26h4.47l.21,2.26h.1c.73-1.08,2.25-2.63,5.12-2.63,2.22,0,3.91,1.11,4.64,2.83h.07c.66-.88,1.38-1.55,2.22-2.02.93-.51,1.97-.81,3.22-.81,3.25,0,5.71,2.23,5.71,7.15v9.71h-5.12v-8.94c0-2.39-.8-3.78-2.49-3.78-1.25,0-2.08.81-2.46,1.79-.1.37-.17.88-.17,1.28v9.64h-5.12v-9.24c0-2.06-.76-3.47-2.46-3.47-1.35,0-2.15,1.01-2.46,1.82-.17.4-.21.88-.21,1.31v9.58h-5.12v-11.23h0Z"/>
  </g>
  <g id="g1294">
    <path id="path1292" class="cls-3" d="m128.45,13.8c.17,2.17,2.33,3.18,4.79,3.18,1.81,0,3.27-.24,4.69-.71l.7,3.49c-1.74.71-3.86,1.05-6.15,1.05-5.77,0-9.07-3.25-9.07-8.46,0-4.2,2.71-8.83,8.58-8.83,5.49,0,7.57,4.16,7.57,8.26,0,.88-.1,1.66-.17,2.06l-10.95-.03Zm6.22-3.52c0-1.22-.56-3.35-2.95-3.35-2.26,0-3.16,2-3.3,3.35h6.25Z"/>
  </g>
  <g id="g1302">
    <g id="g1298">
      <path id="path1296" class="cls-4" d="m101.25,3.51c-4.76,0-8.62,3.86-8.62,8.62s3.86,8.62,8.62,8.62,8.63-3.86,8.63-8.62-3.86-8.62-8.63-8.62m3.25,12.16c-.87.8-2,1.25-3.18,1.26-2.65.04-4.83-2.08-4.87-4.74-.04-2.65,2.09-4.83,4.74-4.87,2.65-.04,4.83,2.08,4.87,4.74.02,1.37-.55,2.68-1.56,3.61"/>
    </g>
    <path id="rect1300" class="cls-3" d="m106.76,4.02h4.36v16.49h-4.36V4.02Z"/>
  </g>
  <g id="g1310">
    <g id="g1306">
      <path id="path1304" class="cls-3" d="m115.03,2.12v3.39h-2.16v2.83h2.16v7.05c0,1.97.37,3.33,1.17,4.19.71.77,1.88,1.23,3.27,1.23,1.2,0,2.98-.29,3.41-.53l-.66-3.35c-.3.14-.94.25-1.59.2-.92-.08-1.29-.35-1.26-2.17l.11-6.68,2.86.06v-2.83h-2.86l-.06-4.28-4.41.03"/>
    </g>
    <path id="rect1308" class="cls-3" d="m112.73,4.02h9.68v4.5h-9.68v-4.5Z"/>
  </g>
  <g id="g1318">
    <g id="g1314">
      <path id="path1312" class="cls-3" d="m2.37,2.18v3.39H.14v2.84h2.22v7.06c0,1.97.38,3.33,1.21,4.19.73.77,1.94,1.23,3.36,1.23,1.24,0,3.07-.29,3.51-.53l-.68-3.36c-.3.14-.97.25-1.64.2-.95-.08-1.33-.35-1.3-2.17l.11-6.69,2.95.06v-2.84h-2.95l-.06-4.29-4.55.03"/>
    </g>
    <path id="rect1316" class="cls-3" d="m0,4.08h9.97v4.51H0v-4.51Z"/>
  </g>
  <g id="g1326">
    <g id="g1322">
      <path id="path1320" class="cls-4" d="m30.89,3.54c-4.76,0-8.62,3.86-8.62,8.62s3.86,8.62,8.62,8.62,8.63-3.86,8.63-8.62-3.86-8.62-8.63-8.62m3.25,12.16c-.87.8-2,1.25-3.18,1.26-2.65.04-4.83-2.08-4.87-4.74-.04-2.65,2.09-4.83,4.74-4.87,2.65-.04,4.83,2.08,4.87,4.74.02,1.37-.55,2.68-1.56,3.61"/>
    </g>
    <path id="rect1324" class="cls-3" d="m36.4,4.06h4.36v16.49h-4.36V4.06Z"/>
  </g>
  <g>
    <path class="cls-3" d="m1.84,25.88v1.46h1.33v.71h-1.33v2.75c0,.63.18.99.69.99.24,0,.42-.03.54-.06l.04.69c-.18.07-.46.13-.82.13-.43,0-.78-.14-1-.39-.26-.27-.36-.73-.36-1.33v-2.78H.14v-.71h.79v-1.22l.9-.24Z"/>
    <path class="cls-3" d="m4.21,28.93c0-.6-.01-1.11-.04-1.59h.81l.03,1h.04c.23-.68.79-1.12,1.41-1.12.11,0,.18.01.26.03v.87c-.1-.02-.19-.03-.32-.03-.65,0-1.11.49-1.24,1.19-.02.13-.04.27-.04.43v2.72h-.92v-3.5Z"/>
    <path class="cls-3" d="m10.42,32.44l-.07-.64h-.03c-.28.4-.83.76-1.56.76-1.03,0-1.56-.73-1.56-1.46,0-1.23,1.09-1.9,3.06-1.89v-.1c0-.42-.12-1.18-1.16-1.18-.47,0-.97.15-1.33.38l-.21-.61c.42-.27,1.03-.45,1.67-.45,1.56,0,1.94,1.06,1.94,2.08v1.9c0,.44.02.87.08,1.22h-.84Zm-.14-2.6c-1.01-.02-2.16.16-2.16,1.15,0,.6.4.88.87.88.66,0,1.08-.42,1.23-.85.03-.1.05-.2.05-.29v-.88Z"/>
    <path class="cls-3" d="m16.31,32.25c-.24.13-.78.29-1.46.29-1.54,0-2.54-1.04-2.54-2.6s1.07-2.7,2.74-2.7c.55,0,1.03.14,1.28.26l-.21.72c-.22-.13-.57-.24-1.07-.24-1.17,0-1.8.86-1.8,1.93,0,1.18.76,1.9,1.77,1.9.53,0,.87-.14,1.14-.25l.16.69Z"/>
    <path class="cls-3" d="m18.31,29.68h.02c.13-.18.31-.4.45-.58l1.49-1.76h1.11l-1.97,2.09,2.24,3h-1.13l-1.76-2.44-.47.53v1.92h-.92v-7.47h.92v4.71Z"/>
    <path class="cls-3" d="m23.54,25.91c.01.32-.22.57-.59.57-.33,0-.56-.25-.56-.57s.24-.58.58-.58.57.25.57.58Zm-1.03,6.52v-5.09h.93v5.09h-.93Z"/>
    <path class="cls-3" d="m24.97,28.72c0-.53-.01-.96-.04-1.38h.82l.05.84h.02c.25-.48.84-.96,1.68-.96.71,0,1.8.42,1.8,2.17v3.04h-.93v-2.94c0-.82-.31-1.51-1.18-1.51-.61,0-1.08.43-1.24.95-.04.12-.06.27-.06.43v3.06h-.93v-3.71Z"/>
    <path class="cls-3" d="m35.2,27.34c-.02.37-.04.78-.04,1.4v2.96c0,1.17-.23,1.88-.73,2.33-.49.46-1.21.61-1.85.61s-1.28-.15-1.69-.42l.23-.71c.34.21.86.4,1.49.4.95,0,1.64-.49,1.64-1.78v-.57h-.02c-.28.47-.83.85-1.62.85-1.26,0-2.17-1.07-2.17-2.48,0-1.73,1.13-2.7,2.29-2.7.88,0,1.37.46,1.59.88h.02l.04-.77h.81Zm-.96,2.01c0-.16-.01-.29-.05-.42-.17-.54-.62-.98-1.29-.98-.88,0-1.51.75-1.51,1.93,0,1,.5,1.83,1.5,1.83.57,0,1.08-.36,1.28-.95.05-.16.07-.34.07-.49v-.92Z"/>
    <path class="cls-3" d="m39.45,30.06c.02,1.25.82,1.77,1.75,1.77.66,0,1.06-.12,1.41-.26l.16.66c-.33.15-.88.32-1.69.32-1.57,0-2.5-1.03-2.5-2.57s.9-2.75,2.39-2.75c1.66,0,2.1,1.46,2.1,2.4,0,.19-.02.34-.03.43h-3.58Zm2.72-.66c.01-.59-.24-1.5-1.28-1.5-.94,0-1.35.86-1.42,1.5h2.7Z"/>
    <path class="cls-3" d="m44.57,27.34l1,2.86c.17.46.31.88.41,1.31h.03c.12-.42.26-.84.43-1.31l.99-2.86h.97l-2,5.09h-.88l-1.94-5.09h.99Z"/>
    <path class="cls-3" d="m49.68,30.06c.02,1.25.82,1.77,1.75,1.77.66,0,1.06-.12,1.41-.26l.16.66c-.33.15-.88.32-1.69.32-1.57,0-2.5-1.03-2.5-2.57s.9-2.75,2.39-2.75c1.66,0,2.1,1.46,2.1,2.4,0,.19-.02.34-.03.43h-3.58Zm2.72-.66c.01-.59-.24-1.5-1.28-1.5-.94,0-1.35.86-1.42,1.5h2.7Z"/>
    <path class="cls-3" d="m54.44,28.93c0-.6-.01-1.11-.04-1.59h.81l.03,1h.04c.23-.68.79-1.12,1.41-1.12.11,0,.18.01.26.03v.87c-.1-.02-.19-.03-.32-.03-.65,0-1.12.49-1.24,1.19-.02.13-.04.27-.04.43v2.72h-.92v-3.5Z"/>
    <path class="cls-3" d="m58.49,27.34l1.11,3.01c.12.34.24.74.33,1.04h.02c.09-.31.2-.69.33-1.06l1.01-2.99h.98l-1.39,3.63c-.66,1.75-1.11,2.64-1.75,3.19-.45.4-.91.56-1.14.6l-.23-.78c.23-.07.54-.22.81-.45.25-.2.57-.56.78-1.03.04-.1.07-.17.07-.22s-.02-.13-.06-.24l-1.88-4.69h1.01Z"/>
    <path class="cls-3" d="m64.22,25.88v1.46h1.33v.71h-1.33v2.75c0,.63.18.99.69.99.24,0,.42-.03.54-.06l.04.69c-.18.07-.46.13-.82.13-.43,0-.78-.14-1-.39-.26-.27-.36-.73-.36-1.33v-2.78h-.79v-.71h.79v-1.22l.9-.24Z"/>
    <path class="cls-3" d="m66.59,24.96h.93v3.18h.02c.15-.26.38-.49.66-.65.27-.16.6-.26.95-.26.68,0,1.78.42,1.78,2.18v3.03h-.93v-2.93c0-.82-.31-1.52-1.18-1.52-.6,0-1.07.42-1.24.93-.05.13-.06.26-.06.44v3.07h-.93v-7.47Z"/>
    <path class="cls-3" d="m73.47,25.91c.01.32-.22.57-.59.57-.33,0-.56-.25-.56-.57s.24-.58.58-.58.57.25.57.58Zm-1.03,6.52v-5.09h.93v5.09h-.93Z"/>
    <path class="cls-3" d="m74.9,28.72c0-.53-.01-.96-.04-1.38h.82l.05.84h.02c.25-.48.84-.96,1.68-.96.71,0,1.8.42,1.8,2.17v3.04h-.93v-2.94c0-.82-.31-1.51-1.18-1.51-.61,0-1.08.43-1.24.95-.04.12-.06.27-.06.43v3.06h-.93v-3.71Z"/>
    <path class="cls-3" d="m85.13,27.34c-.02.37-.04.78-.04,1.4v2.96c0,1.17-.23,1.88-.73,2.33-.49.46-1.21.61-1.85.61s-1.28-.15-1.69-.42l.23-.71c.34.21.86.4,1.49.4.95,0,1.64-.49,1.64-1.78v-.57h-.02c-.28.47-.83.85-1.62.85-1.26,0-2.17-1.07-2.17-2.48,0-1.73,1.13-2.7,2.29-2.7.88,0,1.37.46,1.59.88h.02l.04-.77h.81Zm-.96,2.01c0-.16-.01-.29-.05-.42-.17-.54-.62-.98-1.29-.98-.88,0-1.51.75-1.51,1.93,0,1,.5,1.83,1.5,1.83.57,0,1.08-.36,1.28-.95.05-.16.07-.34.07-.49v-.92Z"/>
    <path class="cls-3" d="m89.38,30.06c.02,1.25.82,1.77,1.75,1.77.66,0,1.06-.12,1.41-.26l.16.66c-.33.15-.88.32-1.69.32-1.57,0-2.5-1.03-2.5-2.57s.9-2.75,2.39-2.75c1.66,0,2.1,1.46,2.1,2.4,0,.19-.02.34-.03.43h-3.58Zm2.72-.66c.01-.59-.24-1.5-1.28-1.5-.94,0-1.35.86-1.42,1.5h2.7Z"/>
    <path class="cls-3" d="m94.5,27.34l1,2.86c.17.46.31.88.41,1.31h.03c.12-.42.26-.84.43-1.31l.99-2.86h.97l-2,5.09h-.88l-1.94-5.09h.99Z"/>
    <path class="cls-3" d="m99.61,30.06c.02,1.25.82,1.77,1.75,1.77.66,0,1.06-.12,1.41-.26l.16.66c-.33.15-.88.32-1.69.32-1.57,0-2.5-1.03-2.5-2.57s.9-2.75,2.39-2.75c1.66,0,2.1,1.46,2.1,2.4,0,.19-.02.34-.03.43h-3.58Zm2.72-.66c.01-.59-.24-1.5-1.28-1.5-.94,0-1.35.86-1.42,1.5h2.7Z"/>
    <path class="cls-3" d="m104.37,28.93c0-.6-.01-1.11-.04-1.59h.81l.03,1h.04c.23-.68.79-1.12,1.41-1.12.11,0,.18.01.26.03v.87c-.1-.02-.19-.03-.32-.03-.65,0-1.12.49-1.24,1.19-.02.13-.04.27-.04.43v2.72h-.92v-3.5Z"/>
    <path class="cls-3" d="m108.41,27.34l1.11,3.01c.12.34.24.74.33,1.04h.02c.09-.31.2-.69.33-1.06l1.01-2.99h.98l-1.39,3.63c-.66,1.75-1.11,2.64-1.75,3.19-.45.4-.91.56-1.14.6l-.23-.78c.23-.07.54-.22.81-.45.25-.2.57-.56.78-1.03.04-.1.07-.17.07-.22s-.02-.13-.06-.24l-1.88-4.69h1.01Z"/>
    <path class="cls-3" d="m113.53,27.34l.67,2.59c.15.57.28,1.09.38,1.62h.03c.12-.51.28-1.06.45-1.61l.83-2.6h.78l.79,2.55c.19.61.34,1.15.45,1.66h.03c.08-.51.22-1.05.39-1.65l.73-2.56h.92l-1.64,5.09h-.84l-.78-2.43c-.18-.57-.33-1.07-.45-1.67h-.02c-.13.61-.28,1.14-.46,1.68l-.82,2.42h-.84l-1.54-5.09h.95Z"/>
    <path class="cls-3" d="m120.91,24.96h.93v3.18h.02c.15-.26.38-.49.66-.65.27-.16.6-.26.95-.26.68,0,1.78.42,1.78,2.18v3.03h-.93v-2.93c0-.82-.31-1.52-1.18-1.52-.6,0-1.07.42-1.24.93-.05.13-.06.26-.06.44v3.07h-.93v-7.47Z"/>
    <path class="cls-3" d="m127.27,30.06c.02,1.25.82,1.77,1.75,1.77.66,0,1.06-.12,1.41-.26l.16.66c-.33.15-.88.32-1.69.32-1.57,0-2.5-1.03-2.5-2.57s.9-2.75,2.39-2.75c1.66,0,2.1,1.46,2.1,2.4,0,.19-.02.34-.03.43h-3.58Zm2.72-.66c.01-.59-.24-1.5-1.28-1.5-.94,0-1.35.86-1.42,1.5h2.7Z"/>
    <path class="cls-3" d="m132.03,28.93c0-.6-.01-1.11-.04-1.59h.81l.03,1h.04c.23-.68.79-1.12,1.41-1.12.11,0,.18.01.26.03v.87c-.1-.02-.19-.03-.32-.03-.65,0-1.11.49-1.24,1.19-.02.13-.04.27-.04.43v2.72h-.92v-3.5Z"/>
    <path class="cls-3" d="m135.88,30.06c.02,1.25.82,1.77,1.75,1.77.66,0,1.06-.12,1.41-.26l.16.66c-.33.15-.88.32-1.69.32-1.57,0-2.5-1.03-2.5-2.57s.9-2.75,2.39-2.75c1.66,0,2.1,1.46,2.1,2.4,0,.19-.02.34-.03.43h-3.58Zm2.72-.66c.01-.59-.24-1.5-1.28-1.5-.94,0-1.35.86-1.42,1.5h2.7Z"/>
  </g>
  <g class="cls-2">
    <path id="path1276" class="cls-4" d="m22.19,3.51c-5.13,0-9.28,3.95-9.28,8.82s4.16,8.81,9.28,8.81,9.29-3.95,9.29-8.81c0-4.87-3.72-8.47-8.85-8.47m3.06,12.09c-.94.82-2.16,1.27-3.43,1.29-2.86.04-5.76-2.25-5.8-4.96-.04-2.71,2.81-4.82,5.67-4.86,2.86-.04,5.2,2.13,5.24,4.84.02,1.4-.59,2.74-1.68,3.69"/>
  </g>
</svg>