<?xml version="1.0" encoding="utf-8"?>
<!-- Generator: Adobe Illustrator 27.4.0, SVG Export Plug-In . SVG Version: 6.00 Build 0)  -->
<svg version="1.1" id="Layer_1" xmlns="http://www.w3.org/2000/svg" xmlns:xlink="http://www.w3.org/1999/xlink" x="0px" y="0px"
	 viewBox="0 0 792 300" style="enable-background:new 0 0 792 300;" xml:space="preserve">
<style type="text/css">
	.st0{fill-rule:evenodd;clip-rule:evenodd;fill:#FFFFFF;}
	.st1{fill:#FFFFFF;}
</style>
<g>
	<path id="path1278_00000151526597813582969660000003698585850314814116_" class="st0" d="M121.7,81.4c0-0.8-0.9-1.5-2-1.5h-21
		c-1.1,0-2,0.7-2,1.5v86.7h25V81.4L121.7,81.4z"/>
	
		<g id="g1286_00000078739002910140098190000016507814454038361022_" transform="matrix(0.45605405,0,0,0.45605405,-20.932639,-73.124482)">
		<path id="path1282_00000138532278736009296370000000764052393014238363_" class="st0" d="M864.2,326.4l-39.5-35.8
			c-2.1-1.9-5.4-1.6-7.5,0.7L601.9,529l47,42.6l215.3-237.7C866.3,331.6,866.2,328.2,864.2,326.4L864.2,326.4z"/>
		<path id="path1284_00000041996163019169181030000007294945976976211603_" class="st0" d="M603.5,326.4l39.5-35.8
			c2.1-1.9,5.4-1.6,7.5,0.7L865.7,529l-47,42.6L603.4,333.8C601.4,331.6,601.4,328.2,603.5,326.4L603.5,326.4z"/>
	</g>
	
		<g id="g1290_00000144301258678661203460000001110596919236121776_" transform="matrix(0.31224371,0,0,0.31224371,86.150585,61.022948)">
		<path id="path1288_00000021096635178525604690000017187230067689870013_" class="st1" d="M939.5,151.1c0-35-1.2-64.3-2.4-89.6
			h76.1l3.5,38.5h1.8c12.4-18.4,38.3-44.8,87.3-44.8c37.7,0,66.6,19,79,48.3h1.2c11.2-14.9,23.6-26.4,37.7-34.5
			c15.9-8.6,33.6-13.8,54.8-13.8c55.4,0,97.3,37.9,97.3,121.8v165.4h-87.3V190.2c0-40.8-13.6-64.3-42.5-64.3
			c-21.2,0-35.4,13.8-41.9,30.4c-1.8,6.3-2.9,14.9-2.9,21.8v164.3H1114V185c0-35-13-59.2-41.9-59.2c-23,0-36.6,17.2-41.9,31
			c-2.9,6.9-3.5,14.9-3.5,22.4v163.1h-87.3L939.5,151.1L939.5,151.1z"/>
	</g>
	
		<g id="g1294_00000089574136057418903040000002118744101541880470_" transform="matrix(0.31342619,0,0,0.31342619,58.503059,61.107799)">
		<path id="path1292_00000130618852379220172090000001429601104740033716_" class="st1" d="M2092,226.9c2.9,36.8,39.5,54,81.4,54
			c30.7,0,55.4-4,79.6-12.1l11.8,59.2c-29.5,12.1-65.5,17.8-104.4,17.8c-97.9,0-153.9-55.1-153.9-143.6c0-71.2,46-149.9,145.6-149.9
			c93.2,0,128.5,70.7,128.5,140.2c0,14.9-1.8,28.1-2.9,35L2092,226.9z M2197.6,167.2c0-20.7-9.4-56.9-50.1-56.9
			c-38.3,0-53.7,33.9-56,56.9H2197.6z"/>
	</g>
	
		<g id="g1302_00000111895927619326850330000011266217330042789033_" transform="matrix(0.38517841,0,0,0.38517841,-1.1064977,-40.179888)">
		
			<g id="g1298_00000013167901358659710930000001265018115488714174_" transform="matrix(0.79858754,0,0,0.79858754,228.80431,267.64029)">
			<path id="path1296_00000058577713349307026440000011114042232116334228_" class="st0" d="M1568.6,47.4
				c-82.3,0-149.1,66.8-149.1,149.1s66.8,149.1,149.1,149.1c82.4,0,149.1-66.8,149.1-149.1S1651,47.4,1568.6,47.4 M1624.7,257.8
				c-15,13.8-34.6,21.6-55,21.9c-45.9,0.7-83.5-36-84.1-81.9s36.1-83.6,82-84.2c45.9-0.7,83.5,36,84.2,81.9
				C1652,219,1642.2,241.8,1624.7,257.8"/>
		</g>
		<path id="rect1300_00000012463287972949491940000008314398542495477158_" class="st1" d="M1557.6,312.6h60.3v227.7h-60.3V312.6z"
			/>
	</g>
	
		<g id="g1310_00000006702553960351801620000005017295226261636794_" transform="matrix(1.0212763,0,0,1.0212763,1.5026331,52.980926)">
		
			<g id="g1306_00000000939932362988841050000003924770209902802603_" transform="matrix(1.0054551,0,0,1.0054551,285.26151,-511.56387)">
			<path id="path1304_00000121972926360048568320000014659813822717966230_" class="st1" d="M340.8,525.5V543h-11.2v14.7h11.2v36.5
				c0,10.2,1.9,17.2,6.1,21.7c3.7,4,9.7,6.4,16.9,6.4c6.2,0,15.5-1.5,17.7-2.7l-3.4-17.4c-1.5,0.7-4.9,1.3-8.2,1
				c-4.8-0.4-6.7-1.8-6.5-11.2l0.6-34.6l14.8,0.3V543H364l-0.3-22.2l-22.9,0.1"/>
		</g>
		<path id="rect1308_00000145041534394142324070000005633436907036211586_" class="st1" d="M616,26.6h50.4V50H616V26.6z"/>
	</g>
	
		<g id="g1314_00000065762000260335498550000005518860706170868624_" transform="matrix(1.0054551,0,0,1.0054551,285.26151,-511.56387)">
		<path id="path1312_00000057865060456606001130000009592535594522426515_" class="st1" d="M-240.3,578.9v18h-11.8v14.9h11.8v37.3
			c0,10.4,2,17.6,6.4,22.2c3.9,4.1,10.2,6.5,17.8,6.5c6.5,0,16.3-1.5,18.6-2.8l-3.6-17.8c-1.6,0.7-5.2,1.3-8.6,1
			c-5-0.4-7-1.8-6.8-11.4l0.6-35.4l15.6,0.3v-15h-15.6l-0.3-22.7l-24.1,0.1"/>
	</g>
	<path id="rect1316_00000083086882142160967260000000607587273955203724_" class="st1" d="M30.9,80.5h53v23.9h-53V80.5z"/>
	
		<g id="g1326_00000045600924487221656790000008435388077027373963_" transform="matrix(0.38517841,0,0,0.38517841,-94.915498,-40.13591)">
		
			<g id="g1322_00000031204011714346796460000001868831326342486675_" transform="matrix(0.79858754,0,0,0.79858754,228.80431,267.64029)">
			<path id="path1320_00000072991590207950902530000012558898243704723624_" class="st0" d="M656.9,47.8
				c-82.3,0-149.1,66.8-149.1,149.1S574.6,346,656.9,346c82.4,0,149.1-66.8,149.1-149.1C806.1,114.6,739.3,47.8,656.9,47.8
				 M713.1,258.2c-15,13.8-34.6,21.6-55,21.9c-45.9,0.7-83.5-36-84.1-81.9s36.1-83.6,82-84.2c45.9-0.7,83.5,36,84.2,81.9
				C740.4,219.5,730.5,242.2,713.1,258.2"/>
		</g>
		<path id="rect1324_00000003094799985571451600000000839472077700904104_" class="st1" d="M829.5,313h60.3v227.7h-60.3V313z"/>
	</g>
	<g>
		<path class="st1" d="M40.8,196.5v7.8h7.1v3.8h-7.1v14.6c0,3.4,1,5.3,3.7,5.3c1.3,0,2.2-0.2,2.9-0.3l0.2,3.7
			c-0.9,0.4-2.5,0.7-4.4,0.7c-2.3,0-4.1-0.7-5.3-2.1c-1.4-1.5-1.9-3.9-1.9-7.1V208h-4.2v-3.8H36v-6.5L40.8,196.5z"/>
		<path class="st1" d="M53.4,212.7c0-3.2-0.1-5.9-0.2-8.5h4.3l0.2,5.3h0.2c1.2-3.6,4.2-5.9,7.5-5.9c0.6,0,1,0.1,1.4,0.2v4.6
			c-0.5-0.1-1-0.2-1.7-0.2c-3.5,0-5.9,2.6-6.6,6.3c-0.1,0.7-0.2,1.5-0.2,2.3v14.4h-4.9C53.4,231.2,53.4,212.7,53.4,212.7z"/>
		<path class="st1" d="M86.4,231.4L86,228h-0.2c-1.5,2.1-4.4,4-8.3,4c-5.5,0-8.3-3.9-8.3-7.8c0-6.5,5.8-10.1,16.3-10.1v-0.6
			c0-2.2-0.6-6.3-6.2-6.3c-2.5,0-5.2,0.8-7.1,2l-1.1-3.2c2.2-1.5,5.5-2.4,8.9-2.4c8.3,0,10.3,5.7,10.3,11.1v10.1
			c0,2.4,0.1,4.6,0.4,6.5L86.4,231.4L86.4,231.4z M85.7,217.5c-5.4-0.1-11.5,0.8-11.5,6.1c0,3.2,2.1,4.7,4.6,4.7
			c3.5,0,5.8-2.2,6.5-4.5c0.2-0.5,0.3-1.1,0.3-1.6L85.7,217.5L85.7,217.5z"/>
		<path class="st1" d="M117.7,230.4c-1.3,0.7-4.1,1.6-7.8,1.6c-8.2,0-13.5-5.5-13.5-13.8s5.7-14.4,14.6-14.4c2.9,0,5.5,0.7,6.8,1.4
			l-1.1,3.8c-1.2-0.7-3-1.3-5.7-1.3c-6.2,0-9.6,4.6-9.6,10.2c0,6.3,4,10.1,9.4,10.1c2.8,0,4.6-0.7,6-1.3L117.7,230.4z"/>
		<path class="st1" d="M128.3,216.7h0.1c0.7-0.9,1.6-2.1,2.4-3.1l7.9-9.3h5.9l-10.5,11.1l11.9,16h-6l-9.3-13l-2.5,2.8v10.2h-4.9
			v-39.7h4.9v25H128.3z"/>
		<path class="st1" d="M156.2,196.7c0.1,1.7-1.2,3-3.1,3c-1.7,0-3-1.3-3-3s1.3-3.1,3.1-3.1C155,193.6,156.2,194.9,156.2,196.7z
			 M150.7,231.4v-27.1h4.9v27.1H150.7z"/>
		<path class="st1" d="M163.8,211.6c0-2.8-0.1-5.1-0.2-7.3h4.4l0.3,4.5h0.1c1.3-2.6,4.5-5.1,9-5.1c3.8,0,9.6,2.2,9.6,11.5v16.2h-4.9
			v-15.6c0-4.4-1.6-8-6.3-8c-3.2,0-5.8,2.3-6.6,5c-0.2,0.6-0.3,1.5-0.3,2.3v16.3H164v-19.8H163.8z"/>
		<path class="st1" d="M218.2,204.3c-0.1,2-0.2,4.1-0.2,7.4v15.7c0,6.2-1.2,10-3.9,12.4c-2.6,2.5-6.4,3.2-9.8,3.2
			c-3.2,0-6.8-0.8-9-2.2l1.2-3.8c1.8,1.1,4.6,2.1,7.9,2.1c5,0,8.7-2.6,8.7-9.5v-3H213c-1.5,2.5-4.4,4.5-8.6,4.5
			c-6.7,0-11.5-5.7-11.5-13.2c0-9.2,6-14.4,12.2-14.4c4.7,0,7.3,2.5,8.5,4.7h0.1l0.2-4.1h4.3V204.3z M213.1,215
			c0-0.8-0.1-1.6-0.3-2.2c-0.9-2.9-3.3-5.2-6.9-5.2c-4.7,0-8.1,4-8.1,10.2c0,5.3,2.7,9.7,8,9.7c3,0,5.8-1.9,6.8-5
			c0.3-0.8,0.4-1.8,0.4-2.6V215H213.1z"/>
		<path class="st1" d="M240.8,218.7c0.1,6.7,4.4,9.4,9.3,9.4c3.5,0,5.7-0.6,7.5-1.4l0.8,3.5c-1.7,0.8-4.7,1.7-9,1.7
			c-8.3,0-13.3-5.5-13.3-13.7s4.8-14.6,12.7-14.6c8.8,0,11.2,7.8,11.2,12.8c0,1-0.1,1.8-0.2,2.3H240.8z M255.2,215.2
			c0.1-3.1-1.3-8-6.8-8c-5,0-7.2,4.6-7.6,8H255.2z"/>
		<path class="st1" d="M268,204.3l5.3,15.2c0.9,2.5,1.6,4.7,2.2,6.9h0.2c0.6-2.2,1.4-4.5,2.3-6.9l5.3-15.2h5.1l-10.6,27.1h-4.7
			l-10.3-27.1H268z"/>
		<path class="st1" d="M295.2,218.7c0.1,6.7,4.4,9.4,9.3,9.4c3.5,0,5.7-0.6,7.5-1.4l0.8,3.5c-1.7,0.8-4.7,1.7-9,1.7
			c-8.3,0-13.3-5.5-13.3-13.7s4.8-14.6,12.7-14.6c8.8,0,11.2,7.8,11.2,12.8c0,1-0.1,1.8-0.2,2.3H295.2z M309.7,215.2
			c0.1-3.1-1.3-8-6.8-8c-5,0-7.2,4.6-7.6,8H309.7z"/>
		<path class="st1" d="M320.6,212.7c0-3.2-0.1-5.9-0.2-8.5h4.3l0.2,5.3h0.2c1.2-3.6,4.2-5.9,7.5-5.9c0.6,0,0.9,0.1,1.4,0.2v4.6
			c-0.5-0.1-1-0.2-1.7-0.2c-3.5,0-5.9,2.6-6.6,6.3c-0.1,0.7-0.2,1.5-0.2,2.3v14.4h-4.9L320.6,212.7L320.6,212.7z"/>
		<path class="st1" d="M342.1,204.3l5.9,16c0.6,1.8,1.3,3.9,1.7,5.5h0.1c0.5-1.6,1.1-3.7,1.7-5.7l5.4-15.9h5.2l-7.4,19.3
			c-3.5,9.3-5.9,14-9.3,17c-2.4,2.1-4.8,3-6,3.2l-1.2-4.1c1.2-0.4,2.9-1.2,4.3-2.4c1.3-1.1,3-3,4.1-5.5c0.2-0.5,0.4-0.9,0.4-1.2
			s-0.1-0.7-0.3-1.3l-10-25L342.1,204.3L342.1,204.3z"/>
		<path class="st1" d="M372.6,196.5v7.8h7.1v3.8h-7.1v14.6c0,3.4,1,5.3,3.7,5.3c1.3,0,2.2-0.2,2.9-0.3l0.2,3.7
			c-0.9,0.4-2.5,0.7-4.4,0.7c-2.3,0-4.1-0.7-5.3-2.1c-1.4-1.5-1.9-3.9-1.9-7.1V208h-4.2v-3.8h4.2v-6.5L372.6,196.5z"/>
		<path class="st1" d="M385.2,191.6h4.9v16.9h0.1c0.8-1.4,2-2.6,3.5-3.5c1.5-0.8,3.2-1.4,5-1.4c3.6,0,9.5,2.2,9.5,11.6v16.1h-4.9
			v-15.6c0-4.4-1.6-8.1-6.3-8.1c-3.2,0-5.7,2.2-6.6,4.9c-0.3,0.7-0.3,1.4-0.3,2.4v16.3h-4.9L385.2,191.6L385.2,191.6z"/>
		<path class="st1" d="M421.8,196.7c0.1,1.7-1.2,3-3.1,3c-1.7,0-3-1.3-3-3s1.3-3.1,3.1-3.1C420.6,193.6,421.8,194.9,421.8,196.7z
			 M416.3,231.4v-27.1h4.9v27.1H416.3z"/>
		<path class="st1" d="M429.4,211.6c0-2.8-0.1-5.1-0.2-7.3h4.4l0.3,4.5h0.1c1.3-2.6,4.5-5.1,9-5.1c3.8,0,9.6,2.2,9.6,11.5v16.2h-4.9
			v-15.6c0-4.4-1.6-8-6.3-8c-3.2,0-5.8,2.3-6.6,5c-0.2,0.6-0.3,1.5-0.3,2.3v16.3h-4.9v-19.8H429.4z"/>
		<path class="st1" d="M483.8,204.3c-0.1,2-0.2,4.1-0.2,7.4v15.7c0,6.2-1.2,10-3.9,12.4c-2.6,2.5-6.4,3.2-9.8,3.2
			c-3.2,0-6.8-0.8-9-2.2l1.2-3.8c1.8,1.1,4.6,2.1,7.9,2.1c5,0,8.7-2.6,8.7-9.5v-3h-0.1c-1.5,2.5-4.4,4.5-8.6,4.5
			c-6.7,0-11.5-5.7-11.5-13.2c0-9.2,6-14.4,12.2-14.4c4.7,0,7.3,2.5,8.5,4.7h0.1l0.2-4.1h4.3V204.3z M478.7,215
			c0-0.8-0.1-1.6-0.3-2.2c-0.9-2.9-3.3-5.2-6.9-5.2c-4.7,0-8.1,4-8.1,10.2c0,5.3,2.7,9.7,8,9.7c3,0,5.8-1.9,6.8-5
			c0.3-0.8,0.4-1.8,0.4-2.6V215H478.7z"/>
		<path class="st1" d="M506.4,218.7c0.1,6.7,4.4,9.4,9.3,9.4c3.5,0,5.7-0.6,7.5-1.4l0.8,3.5c-1.7,0.8-4.7,1.7-9,1.7
			c-8.3,0-13.3-5.5-13.3-13.7s4.8-14.6,12.7-14.6c8.8,0,11.2,7.8,11.2,12.8c0,1-0.1,1.8-0.2,2.3H506.4z M520.8,215.2
			c0.1-3.1-1.3-8-6.8-8c-5,0-7.2,4.6-7.6,8H520.8z"/>
		<path class="st1" d="M533.6,204.3l5.3,15.2c0.9,2.5,1.6,4.7,2.2,6.9h0.2c0.6-2.2,1.4-4.5,2.3-6.9l5.3-15.2h5.1l-10.6,27.1h-4.7
			l-10.3-27.1H533.6z"/>
		<path class="st1" d="M560.8,218.7c0.1,6.7,4.4,9.4,9.3,9.4c3.5,0,5.7-0.6,7.5-1.4l0.8,3.5c-1.7,0.8-4.7,1.7-9,1.7
			c-8.3,0-13.3-5.5-13.3-13.7s4.8-14.6,12.7-14.6c8.8,0,11.2,7.8,11.2,12.8c0,1-0.1,1.8-0.2,2.3H560.8z M575.3,215.2
			c0.1-3.1-1.3-8-6.8-8c-5,0-7.2,4.6-7.6,8H575.3z"/>
		<path class="st1" d="M586.1,212.7c0-3.2-0.1-5.9-0.2-8.5h4.3l0.2,5.3h0.2c1.2-3.6,4.2-5.9,7.5-5.9c0.6,0,0.9,0.1,1.4,0.2v4.6
			c-0.5-0.1-1-0.2-1.7-0.2c-3.5,0-5.9,2.6-6.6,6.3c-0.1,0.7-0.2,1.5-0.2,2.3v14.4h-4.9V212.7z"/>
		<path class="st1" d="M607.6,204.3l5.9,16c0.6,1.8,1.3,3.9,1.7,5.5h0.1c0.5-1.6,1.1-3.7,1.7-5.7l5.4-15.9h5.2l-7.4,19.3
			c-3.5,9.3-5.9,14-9.3,17c-2.4,2.1-4.8,3-6,3.2l-1.2-4.1c1.2-0.4,2.9-1.2,4.3-2.4c1.3-1.1,3-3,4.1-5.5c0.2-0.5,0.4-0.9,0.4-1.2
			s-0.1-0.7-0.3-1.3l-10-25L607.6,204.3L607.6,204.3z"/>
		<path class="st1" d="M634.9,204.3l3.6,13.8c0.8,3,1.5,5.8,2,8.6h0.2c0.6-2.7,1.5-5.7,2.4-8.6l4.4-13.8h4.1l4.2,13.5
			c1,3.2,1.8,6.1,2.4,8.8h0.2c0.5-2.7,1.2-5.6,2.1-8.8l3.9-13.6h4.9l-8.7,27.1H656l-4.1-12.9c-1-3-1.7-5.7-2.4-8.9h-0.1
			c-0.7,3.2-1.5,6-2.5,9l-4.4,12.9H638l-8.2-27.1H634.9z"/>
		<path class="st1" d="M674.1,191.6h4.9v16.9h0.1c0.8-1.4,2-2.6,3.5-3.5c1.5-0.8,3.2-1.4,5-1.4c3.6,0,9.5,2.2,9.5,11.6v16.1h-4.9
			v-15.6c0-4.4-1.6-8.1-6.3-8.1c-3.2,0-5.7,2.2-6.6,4.9c-0.3,0.7-0.3,1.4-0.3,2.4v16.3h-4.9V191.6z"/>
		<path class="st1" d="M707.9,218.7c0.1,6.7,4.4,9.4,9.3,9.4c3.5,0,5.7-0.6,7.5-1.4l0.8,3.5c-1.7,0.8-4.7,1.7-9,1.7
			c-8.3,0-13.3-5.5-13.3-13.7s4.8-14.6,12.7-14.6c8.8,0,11.2,7.8,11.2,12.8c0,1-0.1,1.8-0.2,2.3H707.9z M722.4,215.2
			c0.1-3.1-1.3-8-6.8-8c-5,0-7.2,4.6-7.6,8H722.4z"/>
		<path class="st1" d="M733.3,212.7c0-3.2-0.1-5.9-0.2-8.5h4.3l0.2,5.3h0.2c1.2-3.6,4.2-5.9,7.5-5.9c0.6,0,1,0.1,1.4,0.2v4.6
			c-0.5-0.1-1-0.2-1.7-0.2c-3.5,0-5.9,2.6-6.6,6.3c-0.1,0.7-0.2,1.5-0.2,2.3v14.4h-4.9V212.7z"/>
		<path class="st1" d="M753.8,218.7c0.1,6.7,4.4,9.4,9.3,9.4c3.5,0,5.7-0.6,7.5-1.4l0.8,3.5c-1.7,0.8-4.7,1.7-9,1.7
			c-8.3,0-13.3-5.5-13.3-13.7s4.8-14.6,12.7-14.6c8.8,0,11.2,7.8,11.2,12.8c0,1-0.1,1.8-0.2,2.3H753.8z M768.2,215.2
			c0.1-3.1-1.3-8-6.8-8c-5,0-7.2,4.6-7.6,8H768.2z"/>
	</g>
	<path class="st0" d="M121.7,114.9c1.1-2.2,3-5.6,6.5-8.7c2.4-2.2,4.7-3.5,6.6-4.4c1.9-1,4.5-2.1,7.7-2.8c2.4-0.6,4.6-0.8,6.5-0.9
		c0-6.9,0-13.8,0-20.7c-2.2,0-4.8,0.2-7.6,0.7c-2.8,0.5-5.2,1.1-7.3,1.8c-2,0.6-4.2,1.5-6.6,2.7c-2.2,1.1-4,2.2-5.6,3.2
		C121.7,95.5,121.7,105.2,121.7,114.9z"/>
</g>
</svg>
