<svg id="svg" version="1.1"
    xmlns="http://www.w3.org/2000/svg"
    xmlns:xlink="http://www.w3.org/1999/xlink" width="500" height="107.83410138248847" viewBox="0, 0, 400,107.83410138248847">
    <g id="svgg">
        <path id="path0" d="M130.430 6.589 C 129.940 6.845,128.473 8.102,126.159 10.250 C 125.468 10.891,124.309 11.942,123.583 12.583 C 120.091 15.672,120.092 15.681,124.750 20.769 C 126.492 22.672,128.629 25.021,129.500 25.990 C 130.371 26.959,131.393 28.089,131.771 28.501 C 132.150 28.913,133.275 30.155,134.271 31.262 C 135.268 32.368,137.265 34.568,138.708 36.151 C 141.152 38.829,141.424 39.207,141.342 39.807 C 141.304 40.084,137.623 44.206,129.417 53.160 C 124.305 58.737,121.563 61.788,121.243 62.254 C 120.759 62.957,120.592 62.784,129.643 70.974 C 132.202 73.290,131.883 73.374,135.363 69.458 C 136.218 68.497,139.167 65.248,141.917 62.240 C 144.667 59.231,147.892 55.684,149.083 54.358 C 151.781 51.356,151.975 51.200,152.549 51.576 C 152.950 51.839,157.536 56.781,160.764 60.429 C 163.271 63.262,170.668 71.379,171.347 72.042 C 172.436 73.105,172.527 73.044,179.583 66.519 C 179.950 66.180,180.903 65.318,181.702 64.603 C 183.768 62.755,183.772 62.888,181.564 60.490 C 178.832 57.522,173.855 52.054,173.230 51.333 C 172.872 50.921,172.393 50.391,172.165 50.156 C 170.737 48.685,163.057 40.094,162.937 39.834 C 162.698 39.318,163.268 38.618,168.833 32.584 C 169.429 31.938,171.379 29.800,173.167 27.832 C 174.954 25.864,176.874 23.766,177.434 23.169 C 179.884 20.555,182.731 17.221,182.940 16.721 C 183.607 15.123,183.488 14.971,177.167 9.349 C 176.571 8.819,175.624 7.969,175.062 7.461 C 172.929 5.527,171.664 6.168,167.417 11.333 C 167.078 11.746,166.072 12.871,165.182 13.833 C 164.291 14.796,161.517 17.833,159.016 20.583 C 153.030 27.166,152.540 27.667,152.108 27.663 C 151.863 27.661,151.094 26.942,149.667 25.379 C 145.079 20.354,143.672 18.807,141.888 16.822 C 140.864 15.682,139.814 14.520,139.554 14.239 C 139.295 13.958,138.447 13.020,137.668 12.156 C 132.324 6.217,131.847 5.850,130.430 6.589 M323.667 9.496 C 323.462 9.625,323.401 10.277,323.333 13.052 C 323.229 17.319,323.519 16.956,320.145 17.027 C 316.553 17.103,316.763 16.628,316.859 24.450 C 316.932 30.344,316.624 29.833,320.097 29.833 C 322.189 29.833,322.690 29.880,322.905 30.095 C 323.049 30.239,323.182 30.371,323.201 30.387 C 323.220 30.403,323.277 35.554,323.328 41.833 C 323.418 53.106,323.424 53.270,323.812 54.833 C 325.440 61.410,330.319 64.386,338.135 63.571 C 345.516 62.802,345.421 62.877,344.507 58.531 C 344.320 57.643,344.014 56.167,343.827 55.250 C 343.364 52.985,343.278 52.909,341.442 53.154 C 337.774 53.642,336.069 52.830,335.658 50.401 C 335.406 48.911,335.651 30.585,335.929 30.205 C 336.114 29.952,336.581 29.907,339.795 29.833 C 342.550 29.771,343.518 29.694,343.725 29.521 C 344.179 29.144,344.139 18.042,343.682 17.477 C 343.367 17.088,343.317 17.083,339.723 17.029 C 337.676 16.998,336.010 16.904,335.917 16.813 C 335.822 16.721,335.714 15.174,335.667 13.228 C 335.590 10.087,335.557 9.786,335.260 9.570 C 334.875 9.288,324.104 9.220,323.667 9.496 M12.750 9.603 C 12.567 9.645,12.261 9.712,12.070 9.752 C 11.452 9.882,11.333 10.511,11.333 13.643 C 11.333 17.522,11.585 17.228,8.174 17.333 C 6.032 17.400,5.455 17.467,5.329 17.667 C 5.076 18.068,5.119 29.209,5.375 29.536 C 5.546 29.756,6.054 29.815,8.228 29.868 C 10.586 29.926,10.897 29.967,11.103 30.248 C 11.293 30.508,11.333 32.198,11.333 39.815 C 11.333 48.869,11.371 49.727,11.939 53.740 C 13.083 61.825,18.928 65.074,29.500 63.505 C 34.266 62.798,34.267 62.797,33.490 59.167 C 33.304 58.296,33.008 56.798,32.831 55.839 C 32.448 53.753,32.136 53.229,31.313 53.294 C 27.297 53.612,25.587 53.303,24.861 52.129 C 24.316 51.246,23.901 47.967,24.147 46.480 C 24.253 45.841,24.334 43.346,24.334 40.718 C 24.335 34.115,24.495 30.362,24.789 30.068 C 24.976 29.881,25.743 29.833,28.595 29.833 C 33.402 29.833,32.901 30.584,32.797 23.531 C 32.694 16.596,33.196 17.333,28.583 17.333 C 24.116 17.333,24.471 17.637,24.380 13.736 C 24.309 10.692,24.183 9.958,23.693 9.727 C 23.398 9.588,13.312 9.474,12.750 9.603 M62.583 15.995 C 59.661 16.422,57.533 17.065,54.616 18.403 C 52.907 19.187,52.730 19.176,52.338 18.261 C 51.755 16.901,51.831 16.917,45.703 16.917 L 40.308 16.917 39.735 17.541 L 39.163 18.166 39.207 40.264 L 39.250 62.363 39.643 62.681 C 40.209 63.139,51.644 63.179,52.021 62.724 C 52.210 62.498,52.265 59.976,52.333 48.433 L 52.417 34.417 52.904 33.583 C 54.741 30.438,60.058 27.326,64.310 26.908 C 66.236 26.718,66.213 26.796,66.137 20.631 C 66.070 15.236,66.242 15.461,62.583 15.995 M87.723 15.997 C 77.721 17.327,70.205 23.766,67.394 33.417 L 66.763 35.583 66.756 39.500 C 66.749 43.815,66.801 44.190,67.842 47.339 C 72.707 62.057,90.069 68.111,103.606 59.810 C 105.402 58.708,105.530 58.783,105.636 61.001 C 105.738 63.146,105.284 63.000,111.870 63.000 C 117.111 63.000,117.347 62.986,117.667 62.667 C 118.128 62.205,118.200 18.360,117.741 17.704 C 117.481 17.334,117.477 17.333,111.944 17.333 C 105.626 17.333,105.682 17.323,105.647 18.551 C 105.591 20.544,105.313 20.669,103.446 19.538 C 99.784 17.321,97.551 16.551,93.167 15.997 C 90.190 15.620,90.561 15.620,87.723 15.997 M281.501 16.020 C 277.634 16.608,273.167 18.491,270.583 20.625 C 264.145 25.940,261.412 31.621,261.421 39.667 C 261.443 58.657,281.968 69.891,298.162 59.778 C 299.950 58.662,300.166 58.727,300.168 60.389 C 300.170 62.882,300.137 62.870,306.890 62.802 L 312.030 62.750 312.348 62.357 C 312.847 61.740,312.847 18.094,312.348 17.477 L 312.030 17.083 306.933 17.035 C 300.213 16.971,300.394 16.916,300.181 19.083 C 300.063 20.290,299.700 20.454,298.663 19.768 C 293.575 16.400,287.595 15.095,281.501 16.020 M366.083 16.019 C 356.107 17.568,349.222 24.283,346.964 34.667 C 345.948 39.337,346.733 47.939,348.431 50.750 C 348.541 50.933,348.686 51.271,348.753 51.500 C 349.146 52.861,351.752 56.317,353.552 57.867 C 357.584 61.337,361.937 62.933,369.116 63.575 C 371.925 63.826,372.368 63.810,378.417 63.248 C 382.017 62.913,387.209 61.608,388.235 60.780 L 388.721 60.388 388.431 58.902 C 388.272 58.085,388.039 56.967,387.914 56.417 C 387.790 55.867,387.566 54.711,387.417 53.848 C 386.932 51.031,386.802 50.948,384.000 51.653 C 382.173 52.113,381.114 52.276,376.405 52.824 C 368.941 53.693,361.634 50.273,360.905 45.570 C 360.691 44.186,359.493 44.279,375.767 44.419 L 390.139 44.543 390.554 44.128 C 391.724 42.958,391.343 33.729,389.943 29.333 C 386.796 19.455,377.471 14.252,366.083 16.019 M209.583 16.431 C 206.124 17.189,203.793 18.430,201.241 20.875 C 200.307 21.769,199.463 22.500,199.363 22.500 C 199.145 22.500,198.836 21.456,198.834 20.715 C 198.832 19.450,198.458 17.680,198.130 17.384 C 197.666 16.964,186.659 16.917,186.292 17.333 C 185.894 17.784,186.098 61.878,186.500 62.375 L 186.804 62.750 193.320 62.797 L 199.837 62.845 200.252 62.430 L 200.667 62.015 200.667 48.358 C 200.667 34.958,200.673 34.681,201.017 33.569 C 203.264 26.292,211.703 25.761,214.024 32.750 L 214.411 33.917 214.497 48.036 C 214.578 61.302,214.601 62.173,214.881 62.452 C 215.362 62.933,228.411 62.909,228.763 62.426 C 228.963 62.154,229.001 60.017,229.003 48.760 C 229.005 41.421,229.073 34.967,229.154 34.417 C 230.331 26.425,240.089 25.361,242.318 32.982 L 242.737 34.417 242.827 48.306 L 242.917 62.196 243.319 62.522 C 243.912 63.002,256.635 62.937,257.119 62.452 C 257.579 61.992,257.570 34.469,257.110 31.417 C 255.575 21.248,250.368 16.244,241.333 16.257 C 235.748 16.264,232.076 17.793,228.170 21.738 C 226.256 23.670,226.440 23.663,225.144 21.854 C 223.317 19.306,221.054 17.688,217.957 16.718 C 216.190 16.164,211.530 16.005,209.583 16.431 M372.599 26.017 C 375.379 27.175,377.446 30.280,377.301 33.085 C 377.225 34.563,377.613 34.495,369.229 34.498 C 360.052 34.501,360.344 34.569,360.905 32.562 C 362.481 26.920,367.722 23.987,372.599 26.017 M92.750 26.843 C 100.035 27.883,105.236 35.635,103.346 42.636 C 100.015 54.975,83.969 56.469,78.582 44.941 C 74.769 36.781,80.479 27.484,89.833 26.625 C 90.541 26.560,91.020 26.595,92.750 26.843 M288.341 26.909 C 296.239 28.581,300.686 38.002,297.020 45.294 C 290.753 57.758,272.244 53.489,272.261 39.583 C 272.272 30.935,279.700 25.080,288.341 26.909 M53.500 75.167 C 53.174 75.492,53.167 75.722,53.167 85.324 L 53.167 95.148 53.537 95.407 C 54.005 95.735,54.985 95.742,55.444 95.421 C 55.767 95.194,55.800 94.987,55.859 92.847 C 55.919 90.652,55.946 90.495,56.330 90.086 C 57.089 89.279,57.234 89.409,60.310 93.660 C 61.620 95.471,61.897 95.667,63.146 95.667 C 65.072 95.667,64.966 95.246,62.071 91.417 C 58.725 86.990,58.780 87.588,61.451 84.770 C 64.299 81.767,64.395 81.452,62.468 81.452 C 61.102 81.452,61.027 81.507,58.743 84.175 C 55.752 87.668,55.858 87.808,55.843 80.301 C 55.833 75.381,55.831 75.351,55.463 75.093 C 54.932 74.721,53.907 74.759,53.500 75.167 M189.667 75.167 C 189.341 75.492,189.333 75.722,189.333 85.324 L 189.333 95.148 189.704 95.407 C 189.907 95.550,190.383 95.667,190.761 95.667 C 191.969 95.667,191.968 95.669,192.029 90.667 C 192.096 85.216,192.436 84.314,194.640 83.742 C 197.780 82.927,198.833 84.915,198.833 91.655 C 198.833 95.584,198.860 95.667,200.112 95.667 C 201.369 95.667,201.409 95.530,201.468 91.108 C 201.545 85.347,201.170 83.614,199.551 82.260 C 197.956 80.926,195.040 80.850,193.386 82.099 C 192.162 83.024,192.000 82.628,192.000 78.715 C 192.000 75.016,191.941 74.833,190.741 74.833 C 190.222 74.833,189.900 74.933,189.667 75.167 M339.776 75.138 C 339.526 75.414,339.500 76.361,339.500 85.293 C 339.500 96.347,339.419 95.667,340.730 95.667 C 342.087 95.667,342.071 95.717,342.179 91.222 C 342.293 86.514,342.435 85.744,343.373 84.726 C 344.920 83.048,347.214 83.243,348.480 85.159 C 348.707 85.503,348.763 86.312,348.833 90.299 C 348.917 95.024,348.917 95.030,349.310 95.348 C 349.842 95.779,350.896 95.771,351.333 95.333 C 351.851 94.816,351.842 86.269,351.322 84.586 C 350.371 81.508,347.052 80.309,343.929 81.916 C 342.213 82.799,342.268 82.899,342.167 78.728 C 342.090 75.586,342.057 75.286,341.760 75.069 C 341.288 74.725,340.113 74.766,339.776 75.138 M206.055 76.243 C 204.743 76.813,204.861 78.708,206.236 79.162 C 207.667 79.634,208.799 78.205,208.140 76.758 C 207.845 76.110,206.899 75.876,206.055 76.243 M67.393 76.562 C 66.732 77.130,66.755 77.999,67.449 78.693 C 68.755 79.999,70.736 78.810,70.161 77.065 C 69.832 76.069,68.291 75.789,67.393 76.562 M8.563 77.848 C 7.831 78.060,7.657 78.338,7.562 79.447 C 7.426 81.042,7.389 81.123,6.708 81.341 C 5.186 81.830,5.044 83.055,6.457 83.507 C 7.436 83.820,7.411 83.697,7.500 88.562 L 7.583 93.108 8.083 94.096 C 9.252 96.403,13.667 96.872,13.667 94.688 C 13.667 93.883,13.429 93.667,12.542 93.667 C 10.583 93.667,10.429 93.293,10.362 88.409 C 10.296 83.538,10.260 83.636,12.149 83.529 C 14.745 83.383,14.695 81.604,12.088 81.370 C 10.497 81.226,10.340 81.041,10.336 79.304 C 10.332 77.740,9.967 77.440,8.563 77.848 M181.226 77.782 C 180.580 77.908,180.291 78.427,180.178 79.663 C 180.056 80.994,179.925 81.183,178.953 81.424 C 177.664 81.745,177.697 83.211,179.001 83.545 C 180.189 83.851,180.167 83.760,180.167 88.268 C 180.167 94.850,180.860 96.132,184.337 95.975 C 186.734 95.866,187.376 93.667,185.011 93.667 C 183.118 93.667,182.798 92.803,182.866 87.874 C 182.926 83.469,182.844 83.655,184.780 83.542 C 186.233 83.456,186.500 83.280,186.500 82.405 C 186.500 81.658,186.198 81.484,184.674 81.353 C 183.015 81.210,182.989 81.183,182.852 79.423 C 182.716 77.681,182.558 77.521,181.226 77.782 M21.662 81.423 C 21.246 81.551,20.597 81.920,20.218 82.244 C 19.369 82.971,19.412 82.974,19.000 82.167 C 18.674 81.527,18.627 81.500,17.850 81.500 C 16.565 81.500,16.620 81.177,16.655 88.541 C 16.691 95.938,16.641 95.667,17.942 95.667 C 19.294 95.667,19.333 95.550,19.336 91.458 C 19.340 85.872,20.014 84.241,22.481 83.851 C 23.576 83.678,23.750 83.501,23.750 82.560 C 23.750 81.309,23.128 80.971,21.662 81.423 M28.377 81.417 C 26.409 81.869,25.670 82.554,26.230 83.410 C 26.559 83.911,27.159 83.959,28.401 83.582 C 30.758 82.867,32.830 83.654,33.108 85.370 C 33.230 86.120,32.894 86.450,31.873 86.584 C 26.908 87.239,25.000 88.684,25.000 91.788 C 25.000 95.368,28.529 97.163,32.024 95.361 C 33.254 94.726,33.242 94.727,33.864 95.250 C 34.435 95.731,35.241 95.796,35.796 95.407 C 36.561 94.871,36.280 85.352,35.450 83.687 C 34.415 81.610,31.549 80.691,28.377 81.417 M44.517 81.414 C 38.376 82.806,36.941 91.951,42.373 95.075 C 45.025 96.600,50.000 96.244,50.000 94.528 C 50.000 93.436,49.711 93.223,48.549 93.463 C 44.508 94.298,41.900 92.339,41.941 88.500 C 41.977 85.080,44.639 82.897,47.920 83.594 C 49.678 83.967,50.661 83.235,50.017 82.032 C 49.631 81.310,46.518 80.960,44.517 81.414 M79.500 81.395 C 79.087 81.516,78.357 81.833,77.877 82.099 L 77.005 82.583 76.494 82.042 C 76.069 81.591,75.861 81.500,75.253 81.500 C 73.944 81.500,74.000 81.185,74.000 88.586 L 74.000 95.148 74.370 95.407 C 74.764 95.683,76.101 95.756,76.470 95.522 C 76.879 95.263,76.992 94.100,76.996 90.118 C 77.000 86.549,77.032 86.092,77.318 85.535 C 78.673 82.901,82.211 82.976,83.178 85.660 C 83.323 86.062,83.412 87.672,83.457 90.707 C 83.533 95.769,83.502 95.667,84.950 95.667 C 86.192 95.667,86.197 95.641,86.136 89.804 L 86.083 84.750 85.639 83.917 C 84.462 81.706,81.952 80.676,79.500 81.395 M94.026 81.400 C 88.410 82.826,87.476 92.053,92.646 95.041 C 93.979 95.812,96.623 95.854,97.863 95.125 C 99.345 94.254,99.917 94.662,99.506 96.295 C 98.781 99.176,95.733 100.340,92.377 99.017 C 90.621 98.325,89.856 100.330,91.562 101.156 C 95.224 102.929,100.512 101.332,101.837 98.051 C 102.310 96.881,102.690 82.153,102.258 81.698 C 101.815 81.231,100.636 81.409,100.126 82.020 C 99.662 82.576,99.655 82.578,99.204 82.292 C 97.588 81.268,95.776 80.955,94.026 81.400 M116.500 81.434 C 110.043 83.159,110.065 94.173,116.529 95.757 C 119.829 96.566,123.518 95.705,123.272 94.184 C 123.121 93.255,122.935 93.217,120.750 93.664 C 117.745 94.280,115.139 92.892,114.594 90.386 C 114.343 89.234,114.602 89.167,119.296 89.167 C 124.535 89.167,124.595 89.133,124.173 86.417 C 123.553 82.430,120.410 80.389,116.500 81.434 M144.683 81.430 C 139.074 83.018,138.269 92.845,143.547 95.295 C 146.357 96.598,151.667 96.086,151.667 94.511 C 151.667 93.359,151.226 93.209,149.167 93.656 C 146.415 94.254,143.807 93.131,143.095 91.042 C 142.467 89.200,142.550 89.167,147.775 89.167 C 152.885 89.167,152.569 89.312,152.463 87.012 C 152.264 82.708,148.842 80.253,144.683 81.430 M160.832 81.322 C 160.159 81.527,159.440 81.940,159.099 82.316 C 158.653 82.809,158.291 82.747,158.000 82.129 C 157.729 81.554,157.169 81.315,156.425 81.458 C 155.573 81.620,155.562 81.732,155.659 88.722 C 155.761 95.980,155.701 95.667,156.995 95.667 C 158.302 95.667,158.333 95.576,158.335 91.782 C 158.337 85.999,159.231 83.833,161.616 83.833 C 162.773 83.833,163.276 82.428,162.424 81.576 C 162.009 81.161,161.586 81.093,160.832 81.322 M217.613 81.417 C 217.170 81.539,216.529 81.832,216.187 82.069 C 215.570 82.496,214.667 82.654,214.667 82.333 C 214.667 81.668,212.888 81.179,212.367 81.700 C 212.218 81.849,212.167 83.561,212.167 88.374 L 212.167 94.848 212.596 95.278 C 212.968 95.650,213.127 95.696,213.794 95.620 C 214.994 95.485,215.000 95.462,215.000 91.158 C 215.000 85.624,215.379 84.499,217.479 83.791 C 220.634 82.727,221.667 84.529,221.667 91.099 L 221.667 94.848 222.076 95.258 C 222.389 95.571,222.661 95.667,223.239 95.667 C 224.525 95.667,224.532 95.635,224.470 90.136 L 224.417 85.417 223.849 84.206 C 222.648 81.642,220.419 80.646,217.613 81.417 M231.917 81.434 C 228.088 82.657,226.206 87.954,228.101 92.176 C 229.460 95.205,233.175 96.532,236.154 95.051 C 237.791 94.238,238.165 94.656,237.576 96.639 C 236.831 99.149,233.540 100.267,230.534 99.029 L 229.652 98.666 229.243 99.075 C 228.075 100.243,229.197 101.320,231.966 101.689 C 236.166 102.248,239.081 100.728,240.187 97.401 C 240.736 95.748,240.900 82.492,240.379 81.849 C 239.880 81.232,238.881 81.315,238.290 82.024 C 237.829 82.576,237.822 82.578,237.371 82.292 C 235.692 81.228,233.596 80.898,231.917 81.434 M254.629 81.403 C 249.134 82.990,248.014 92.037,252.947 94.998 C 256.324 97.025,263.039 95.937,261.196 93.661 L 260.892 93.286 259.408 93.580 C 255.929 94.271,253.471 93.165,252.801 90.608 C 252.431 89.200,252.540 89.167,257.576 89.167 C 262.707 89.167,262.660 89.193,262.322 86.499 C 261.832 82.596,258.392 80.316,254.629 81.403 M283.000 81.405 C 276.832 83.116,276.414 93.688,282.439 95.583 C 284.946 96.372,289.211 95.983,289.694 94.922 C 290.192 93.829,289.412 93.179,288.015 93.521 C 284.331 94.425,281.000 92.758,281.000 90.011 C 281.000 89.215,281.274 89.167,285.830 89.167 L 290.015 89.167 290.447 88.735 C 291.599 87.582,290.067 83.226,288.076 81.996 C 286.819 81.219,284.601 80.960,283.000 81.405 M299.083 81.321 C 298.364 81.495,297.828 81.800,297.196 82.395 L 296.642 82.917 296.330 82.500 C 295.661 81.608,295.501 81.500,294.854 81.500 C 293.721 81.500,293.750 81.313,293.750 88.508 C 293.750 95.816,293.724 95.667,295.007 95.667 C 296.368 95.667,296.404 95.556,296.510 91.056 C 296.639 85.529,297.416 83.833,299.818 83.833 C 300.466 83.833,300.833 83.361,300.833 82.529 C 300.833 81.396,300.299 81.028,299.083 81.321 M359.463 81.403 C 356.304 82.315,354.917 84.556,354.917 88.750 C 354.917 93.637,357.182 96.019,361.833 96.024 C 365.358 96.027,367.268 94.935,365.984 93.650 C 365.615 93.282,365.641 93.282,363.750 93.666 C 360.973 94.230,358.660 93.236,357.765 91.094 C 357.004 89.272,357.260 89.167,362.422 89.167 C 367.480 89.167,367.250 89.252,367.250 87.384 C 367.250 83.076,363.538 80.226,359.463 81.403 M375.355 81.416 C 374.954 81.541,374.340 81.874,373.989 82.155 C 373.191 82.797,373.108 82.793,372.702 82.106 C 372.351 81.511,371.910 81.345,371.085 81.495 C 370.227 81.651,370.208 81.836,370.317 88.805 C 370.429 95.978,370.367 95.667,371.680 95.667 C 373.052 95.667,373.072 95.598,373.167 90.723 L 373.250 86.417 373.700 85.651 C 374.309 84.615,375.145 84.010,376.198 83.843 C 377.198 83.685,377.500 83.369,377.500 82.480 C 377.500 81.370,376.729 80.988,375.355 81.416 M383.245 81.424 C 378.163 82.685,376.747 91.559,381.125 94.704 C 384.303 96.987,392.196 96.030,389.817 93.650 C 389.449 93.282,389.480 93.282,387.583 93.665 C 384.522 94.282,381.708 92.790,381.385 90.378 C 381.224 89.177,381.263 89.167,386.095 89.167 C 391.298 89.167,391.083 89.261,390.960 87.022 C 390.722 82.656,387.552 80.356,383.245 81.424 M68.175 81.519 C 67.150 81.732,67.167 81.614,67.167 88.539 L 67.167 94.848 67.576 95.258 C 68.104 95.786,69.175 95.825,69.667 95.333 C 69.988 95.012,70.000 94.778,70.000 88.620 C 70.000 81.100,70.010 81.137,68.175 81.519 M126.500 81.482 C 125.508 81.654,125.556 81.854,128.246 88.750 C 128.676 89.850,129.167 91.162,129.338 91.667 C 130.473 95.006,130.931 95.667,132.110 95.667 C 133.715 95.667,133.439 96.143,136.738 87.667 C 137.434 85.879,138.148 84.106,138.324 83.726 C 139.122 82.008,138.919 81.462,137.483 81.462 C 136.392 81.462,135.984 81.854,135.531 83.333 C 135.349 83.929,134.848 85.392,134.417 86.583 C 133.987 87.775,133.489 89.197,133.311 89.744 C 132.488 92.271,132.104 91.920,130.498 87.167 C 128.765 82.038,128.613 81.696,128.008 81.563 C 127.216 81.388,127.084 81.381,126.500 81.482 M164.833 81.478 C 164.070 81.695,164.382 83.034,166.101 86.917 C 166.379 87.545,168.242 92.231,168.771 93.633 C 169.563 95.732,168.887 97.162,166.250 98.964 L 165.083 99.762 165.095 100.572 C 165.153 104.447,171.102 99.316,172.759 93.963 C 172.925 93.426,174.280 89.898,174.664 89.000 C 174.841 88.587,175.246 87.537,175.565 86.667 C 175.884 85.796,176.413 84.422,176.740 83.615 C 177.548 81.618,177.396 81.358,175.500 81.493 C 174.511 81.563,174.434 81.686,173.423 84.781 C 172.890 86.413,172.360 87.899,172.246 88.083 C 172.131 88.266,171.950 88.798,171.842 89.264 C 171.253 91.819,170.605 91.497,169.467 88.083 C 169.284 87.533,168.877 86.408,168.563 85.583 C 168.249 84.758,167.799 83.576,167.564 82.956 C 167.328 82.336,167.011 81.763,166.859 81.683 C 166.435 81.461,165.298 81.346,164.833 81.478 M206.500 81.459 C 205.470 81.636,205.500 81.423,205.500 88.526 C 205.500 95.926,205.450 95.667,206.891 95.667 C 208.214 95.667,208.167 95.933,208.167 88.560 C 208.167 81.101,208.183 81.170,206.500 81.459 M275.229 81.467 C 274.293 81.558,273.653 82.960,271.561 89.500 C 270.731 92.097,270.336 92.064,269.396 89.324 C 267.922 85.028,267.500 83.842,267.055 82.750 L 266.579 81.583 265.674 81.532 C 264.366 81.457,264.000 81.583,264.000 82.108 C 264.000 82.539,264.660 84.539,264.993 85.117 C 265.088 85.282,265.425 86.129,265.741 87.000 C 266.058 87.871,266.505 89.071,266.736 89.667 C 266.967 90.263,267.481 91.632,267.879 92.709 C 268.821 95.259,269.019 95.519,270.100 95.623 C 271.401 95.748,271.875 95.421,272.392 94.046 C 272.957 92.544,273.327 91.594,274.163 89.500 C 277.469 81.215,277.465 81.250,275.229 81.467 M303.100 81.487 C 302.139 81.678,302.225 82.333,303.591 85.250 C 303.720 85.525,304.286 86.912,304.848 88.333 C 305.411 89.754,306.094 91.479,306.367 92.167 C 307.763 95.683,307.429 96.950,304.624 98.791 C 303.189 99.732,303.172 99.752,303.169 100.505 C 303.156 103.585,307.054 101.413,309.458 97.000 C 310.300 95.455,311.485 92.528,314.857 83.667 C 315.568 81.795,315.457 81.472,314.100 81.472 C 312.595 81.472,312.592 81.477,311.076 86.190 C 309.269 91.806,308.945 92.056,307.836 88.688 C 307.666 88.172,307.141 86.737,306.670 85.500 C 306.199 84.262,305.698 82.930,305.556 82.539 C 305.217 81.598,304.367 81.234,303.100 81.487 M326.218 81.533 C 325.549 81.707,325.106 82.822,323.157 89.250 C 322.430 91.646,322.007 91.677,321.419 89.375 C 321.168 88.390,320.856 87.238,320.726 86.816 C 320.596 86.394,320.265 85.161,319.991 84.075 C 319.389 81.692,319.246 81.500,318.069 81.500 C 316.545 81.500,316.497 81.635,317.186 83.981 C 317.471 84.954,317.771 86.030,317.853 86.372 C 317.934 86.714,318.107 87.277,318.236 87.622 C 318.366 87.967,318.709 89.075,318.997 90.083 C 319.286 91.092,319.624 92.217,319.748 92.583 C 319.872 92.950,320.094 93.680,320.241 94.206 C 320.623 95.572,322.155 96.186,323.157 95.375 C 323.429 95.155,326.458 86.842,326.497 86.208 C 326.527 85.739,327.050 86.442,327.367 87.375 C 328.032 89.331,329.486 93.882,329.590 94.333 C 329.861 95.503,331.160 96.023,332.318 95.425 C 332.860 95.145,332.767 95.371,334.333 90.500 C 334.996 88.438,335.873 85.725,336.282 84.471 C 337.178 81.728,337.142 81.500,335.817 81.500 C 334.330 81.500,334.034 82.153,331.988 89.967 C 331.464 91.969,331.274 91.824,330.286 88.665 C 327.893 81.012,327.936 81.088,326.218 81.533 M119.046 83.343 C 120.713 83.806,122.120 86.213,121.130 86.907 C 120.531 87.327,115.515 87.284,114.986 86.855 C 113.516 85.665,116.892 82.745,119.046 83.343 M147.546 83.430 C 149.329 84.037,150.490 86.529,149.216 87.013 C 148.677 87.218,143.971 87.211,143.428 87.004 C 142.600 86.689,143.081 85.194,144.363 84.097 C 145.444 83.171,146.275 82.997,147.546 83.430 M257.220 83.345 C 258.200 83.617,259.110 84.541,259.445 85.604 C 259.892 87.023,259.794 87.071,256.359 87.136 C 252.992 87.199,252.612 87.060,252.962 85.897 C 253.509 84.083,255.526 82.875,257.220 83.345 M286.417 83.808 C 287.522 84.566,288.246 86.320,287.684 86.883 C 287.413 87.155,281.990 87.262,281.509 87.005 C 280.499 86.464,282.100 83.836,283.743 83.338 C 284.531 83.099,285.676 83.300,286.417 83.808 M362.046 83.343 C 363.660 83.791,365.008 85.992,364.178 86.822 C 363.858 87.142,363.640 87.167,361.102 87.167 C 357.779 87.167,357.438 87.031,357.823 85.864 C 358.431 84.023,360.356 82.874,362.046 83.343 M385.880 83.343 C 387.493 83.791,388.841 85.992,388.011 86.822 C 387.621 87.212,382.495 87.354,381.822 86.994 C 380.028 86.034,383.693 82.736,385.880 83.343 M97.559 83.774 C 99.430 84.719,100.268 87.845,99.427 90.738 C 98.224 94.879,93.009 94.125,92.175 89.690 C 91.420 85.670,94.535 82.247,97.559 83.774 M235.726 83.774 C 237.598 84.720,238.432 87.850,237.588 90.764 C 236.529 94.419,231.650 94.274,230.567 90.554 C 229.296 86.184,232.405 82.097,235.726 83.774 M33.256 88.946 C 33.959 89.649,33.165 92.271,31.960 93.228 C 29.531 95.155,26.311 92.307,28.385 90.065 C 29.464 88.899,32.509 88.200,33.256 88.946 " stroke="none" fill="#f3f3f3" fill-rule="evenodd"></path>
        <path id="path1" d="M0.000 53.917 L 0.000 107.833 200.000 107.833 L 400.000 107.833 400.000 53.917 L 400.000 0.000 200.000 0.000 L 0.000 0.000 0.000 53.917 M132.250 6.646 C 132.888 6.938,133.888 7.954,137.668 12.156 C 138.447 13.020,139.295 13.958,139.554 14.239 C 139.814 14.520,140.864 15.682,141.888 16.822 C 143.672 18.807,145.079 20.354,149.667 25.379 C 151.094 26.942,151.863 27.661,152.108 27.663 C 152.540 27.667,153.030 27.166,159.016 20.583 C 161.517 17.833,164.291 14.796,165.182 13.833 C 166.072 12.871,167.078 11.746,167.417 11.333 C 171.664 6.168,172.929 5.527,175.062 7.461 C 175.624 7.969,176.571 8.819,177.167 9.349 C 183.488 14.971,183.607 15.123,182.940 16.721 C 182.731 17.221,179.884 20.555,177.434 23.169 C 176.874 23.766,174.954 25.864,173.167 27.832 C 171.379 29.800,169.429 31.938,168.833 32.584 C 163.268 38.618,162.698 39.318,162.937 39.834 C 163.057 40.094,170.737 48.685,172.165 50.156 C 172.393 50.391,172.872 50.921,173.230 51.333 C 173.855 52.054,178.832 57.522,181.564 60.490 C 183.772 62.888,183.768 62.755,181.702 64.603 C 180.903 65.318,179.950 66.180,179.583 66.519 C 172.527 73.044,172.436 73.105,171.347 72.042 C 170.668 71.379,163.271 63.262,160.764 60.429 C 157.536 56.781,152.950 51.839,152.549 51.576 C 151.975 51.200,151.781 51.356,149.083 54.358 C 147.892 55.684,144.667 59.231,141.917 62.240 C 139.167 65.248,136.218 68.497,135.363 69.458 C 131.883 73.374,132.202 73.290,129.643 70.974 C 120.592 62.784,120.759 62.957,121.243 62.254 C 121.563 61.788,124.305 58.737,129.417 53.160 C 137.623 44.206,141.304 40.084,141.342 39.807 C 141.424 39.207,141.152 38.829,138.708 36.151 C 137.265 34.568,135.268 32.368,134.271 31.262 C 133.275 30.155,132.150 28.913,131.771 28.501 C 131.393 28.089,130.371 26.959,129.500 25.990 C 128.629 25.021,126.492 22.672,124.750 20.769 C 120.092 15.681,120.091 15.672,123.583 12.583 C 124.309 11.942,125.468 10.891,126.159 10.250 C 130.541 6.182,130.845 6.003,132.250 6.646 M335.260 9.570 C 335.557 9.786,335.590 10.087,335.667 13.228 C 335.714 15.174,335.822 16.721,335.917 16.813 C 336.010 16.904,337.676 16.998,339.723 17.029 C 343.317 17.083,343.367 17.088,343.682 17.477 C 344.139 18.042,344.179 29.144,343.725 29.521 C 343.518 29.694,342.550 29.771,339.795 29.833 C 336.581 29.907,336.114 29.952,335.929 30.205 C 335.651 30.585,335.406 48.911,335.658 50.401 C 336.069 52.830,337.774 53.642,341.442 53.154 C 343.278 52.909,343.364 52.985,343.827 55.250 C 344.014 56.167,344.320 57.643,344.507 58.531 C 345.421 62.877,345.516 62.802,338.135 63.571 C 330.319 64.386,325.440 61.410,323.812 54.833 C 323.424 53.270,323.418 53.106,323.328 41.833 C 323.277 35.554,323.220 30.403,323.201 30.387 C 323.182 30.371,323.049 30.239,322.905 30.095 C 322.690 29.880,322.189 29.833,320.097 29.833 C 316.624 29.833,316.932 30.344,316.859 24.450 C 316.763 16.628,316.553 17.103,320.145 17.027 C 323.519 16.956,323.229 17.319,323.333 13.052 C 323.401 10.277,323.462 9.625,323.667 9.496 C 324.104 9.220,334.875 9.288,335.260 9.570 M23.693 9.727 C 24.183 9.958,24.309 10.692,24.380 13.736 C 24.471 17.637,24.116 17.333,28.583 17.333 C 33.196 17.333,32.694 16.596,32.797 23.531 C 32.901 30.584,33.402 29.833,28.595 29.833 C 25.743 29.833,24.976 29.881,24.789 30.068 C 24.495 30.362,24.335 34.115,24.334 40.718 C 24.334 43.346,24.253 45.841,24.147 46.480 C 23.901 47.967,24.316 51.246,24.861 52.129 C 25.587 53.303,27.297 53.612,31.313 53.294 C 32.136 53.229,32.448 53.753,32.831 55.839 C 33.008 56.798,33.304 58.296,33.490 59.167 C 34.267 62.797,34.266 62.798,29.500 63.505 C 18.928 65.074,13.083 61.825,11.939 53.740 C 11.371 49.727,11.333 48.869,11.333 39.815 C 11.333 32.198,11.293 30.508,11.103 30.248 C 10.897 29.967,10.586 29.926,8.228 29.868 C 6.054 29.815,5.546 29.756,5.375 29.536 C 5.119 29.209,5.076 18.068,5.329 17.667 C 5.455 17.467,6.032 17.400,8.174 17.333 C 11.585 17.228,11.333 17.522,11.333 13.643 C 11.333 10.511,11.452 9.882,12.070 9.752 C 12.261 9.712,12.567 9.645,12.750 9.603 C 13.312 9.474,23.398 9.588,23.693 9.727 M65.833 16.106 C 66.103 16.363,66.308 24.124,66.085 25.623 C 65.940 26.598,65.703 26.770,64.310 26.908 C 60.058 27.326,54.741 30.438,52.904 33.583 L 52.417 34.417 52.333 48.433 C 52.265 59.976,52.210 62.498,52.021 62.724 C 51.644 63.179,40.209 63.139,39.643 62.681 L 39.250 62.363 39.207 40.264 L 39.163 18.166 39.735 17.541 L 40.308 16.917 45.703 16.917 C 51.831 16.917,51.755 16.901,52.338 18.261 C 52.730 19.176,52.907 19.187,54.616 18.403 C 59.101 16.346,64.852 15.168,65.833 16.106 M93.167 15.997 C 97.551 16.551,99.784 17.321,103.446 19.538 C 105.313 20.669,105.591 20.544,105.647 18.551 C 105.682 17.323,105.626 17.333,111.944 17.333 C 117.477 17.333,117.481 17.334,117.741 17.704 C 118.200 18.360,118.128 62.205,117.667 62.667 C 117.347 62.986,117.111 63.000,111.870 63.000 C 105.284 63.000,105.738 63.146,105.636 61.001 C 105.530 58.783,105.402 58.708,103.606 59.810 C 90.069 68.111,72.707 62.057,67.842 47.339 C 66.801 44.190,66.749 43.815,66.756 39.500 L 66.763 35.583 67.394 33.417 C 70.424 23.014,79.097 16.287,90.250 15.688 C 90.433 15.678,91.746 15.817,93.167 15.997 M288.717 15.999 C 292.621 16.602,295.566 17.718,298.663 19.768 C 299.700 20.454,300.063 20.290,300.181 19.083 C 300.394 16.916,300.213 16.971,306.933 17.035 L 312.030 17.083 312.348 17.477 C 312.847 18.094,312.847 61.740,312.348 62.357 L 312.030 62.750 306.890 62.802 C 300.137 62.870,300.170 62.882,300.168 60.389 C 300.166 58.727,299.950 58.662,298.162 59.778 C 281.968 69.891,261.443 58.657,261.421 39.667 C 261.412 31.621,264.145 25.940,270.583 20.625 C 275.079 16.913,282.452 15.033,288.717 15.999 M373.917 15.985 C 382.921 17.263,388.583 22.724,390.695 32.167 C 391.425 35.430,391.331 43.351,390.554 44.128 L 390.139 44.543 375.767 44.419 C 359.493 44.279,360.691 44.186,360.905 45.570 C 361.634 50.273,368.941 53.693,376.405 52.824 C 381.114 52.276,382.173 52.113,384.000 51.653 C 386.802 50.948,386.932 51.031,387.417 53.848 C 387.566 54.711,387.790 55.867,387.914 56.417 C 388.039 56.967,388.272 58.085,388.431 58.902 L 388.721 60.388 388.235 60.780 C 387.209 61.608,382.017 62.913,378.417 63.248 C 372.368 63.810,371.925 63.826,369.116 63.575 C 361.937 62.933,357.584 61.337,353.552 57.867 C 351.752 56.317,349.146 52.861,348.753 51.500 C 348.686 51.271,348.541 50.933,348.431 50.750 C 346.733 47.939,345.948 39.337,346.964 34.667 C 349.816 21.551,360.577 14.092,373.917 15.985 M217.957 16.718 C 221.054 17.688,223.317 19.306,225.144 21.854 C 226.440 23.663,226.256 23.670,228.170 21.738 C 232.076 17.793,235.748 16.264,241.333 16.257 C 250.368 16.244,255.575 21.248,257.110 31.417 C 257.570 34.469,257.579 61.992,257.119 62.452 C 256.635 62.937,243.912 63.002,243.319 62.522 L 242.917 62.196 242.827 48.306 L 242.737 34.417 242.318 32.982 C 240.089 25.361,230.331 26.425,229.154 34.417 C 229.073 34.967,229.005 41.421,229.003 48.760 C 229.001 60.017,228.963 62.154,228.763 62.426 C 228.411 62.909,215.362 62.933,214.881 62.452 C 214.601 62.173,214.578 61.302,214.497 48.036 L 214.411 33.917 214.024 32.750 C 211.703 25.761,203.264 26.292,201.017 33.569 C 200.673 34.681,200.667 34.958,200.667 48.358 L 200.667 62.015 200.252 62.430 L 199.837 62.845 193.320 62.797 L 186.804 62.750 186.500 62.375 C 186.098 61.878,185.894 17.784,186.292 17.333 C 186.659 16.917,197.666 16.964,198.130 17.384 C 198.458 17.680,198.832 19.450,198.834 20.715 C 198.836 21.456,199.145 22.500,199.363 22.500 C 199.463 22.500,200.307 21.769,201.241 20.875 C 203.793 18.430,206.124 17.189,209.583 16.431 C 211.530 16.005,216.190 16.164,217.957 16.718 M368.000 25.492 C 364.665 26.116,361.950 28.821,360.905 32.562 C 360.344 34.569,360.052 34.501,369.229 34.498 C 377.613 34.495,377.225 34.563,377.301 33.085 C 377.536 28.527,372.734 24.607,368.000 25.492 M89.833 26.625 C 80.479 27.484,74.769 36.781,78.582 44.941 C 83.969 56.469,100.015 54.975,103.346 42.636 C 104.962 36.651,101.346 29.819,95.345 27.517 C 93.809 26.928,91.175 26.501,89.833 26.625 M282.917 26.753 C 273.056 28.553,268.744 40.325,275.150 47.953 C 283.014 57.316,298.336 51.753,298.333 39.535 C 298.331 31.494,290.863 25.303,282.917 26.753 M55.463 75.093 C 55.831 75.351,55.833 75.381,55.843 80.301 C 55.858 87.808,55.752 87.668,58.743 84.175 C 61.027 81.507,61.102 81.452,62.468 81.452 C 64.395 81.452,64.299 81.767,61.451 84.770 C 58.780 87.588,58.725 86.990,62.071 91.417 C 64.966 95.246,65.072 95.667,63.146 95.667 C 61.897 95.667,61.620 95.471,60.310 93.660 C 57.234 89.409,57.089 89.279,56.330 90.086 C 55.946 90.495,55.919 90.652,55.859 92.847 C 55.800 94.987,55.767 95.194,55.444 95.421 C 54.985 95.742,54.005 95.735,53.537 95.407 L 53.167 95.148 53.167 85.324 C 53.167 75.722,53.174 75.492,53.500 75.167 C 53.907 74.759,54.932 74.721,55.463 75.093 M191.741 75.204 C 191.953 75.507,192.000 76.142,192.000 78.715 C 192.000 82.628,192.162 83.024,193.386 82.099 C 195.040 80.850,197.956 80.926,199.551 82.260 C 201.170 83.614,201.545 85.347,201.468 91.108 C 201.409 95.530,201.369 95.667,200.112 95.667 C 198.860 95.667,198.833 95.584,198.833 91.655 C 198.833 84.915,197.780 82.927,194.640 83.742 C 192.436 84.314,192.096 85.216,192.029 90.667 C 191.968 95.669,191.969 95.667,190.761 95.667 C 190.383 95.667,189.907 95.550,189.704 95.407 L 189.333 95.148 189.333 85.324 C 189.333 75.722,189.341 75.492,189.667 75.167 C 190.153 74.680,191.389 74.702,191.741 75.204 M341.760 75.069 C 342.057 75.286,342.090 75.586,342.167 78.728 C 342.268 82.899,342.213 82.799,343.929 81.916 C 347.052 80.309,350.371 81.508,351.322 84.586 C 351.842 86.269,351.851 94.816,351.333 95.333 C 350.896 95.771,349.842 95.779,349.310 95.348 C 348.917 95.030,348.917 95.024,348.833 90.299 C 348.763 86.312,348.707 85.503,348.480 85.159 C 347.214 83.243,344.920 83.048,343.373 84.726 C 342.435 85.744,342.293 86.514,342.179 91.222 C 342.071 95.717,342.087 95.667,340.730 95.667 C 339.419 95.667,339.500 96.347,339.500 85.293 C 339.500 74.193,339.424 74.833,340.744 74.833 C 341.125 74.833,341.582 74.940,341.760 75.069 M207.348 76.168 C 208.658 76.532,208.696 78.560,207.403 79.100 C 205.940 79.711,204.595 78.213,205.346 76.809 C 205.672 76.200,206.505 75.934,207.348 76.168 M69.664 76.332 C 70.056 76.542,70.380 77.505,70.243 78.051 C 69.791 79.852,66.933 79.435,66.933 77.567 C 66.933 76.448,68.531 75.726,69.664 76.332 M10.071 77.929 C 10.257 78.114,10.334 78.516,10.336 79.304 C 10.340 81.041,10.497 81.226,12.088 81.370 C 14.695 81.604,14.745 83.383,12.149 83.529 C 10.260 83.636,10.296 83.538,10.362 88.409 C 10.429 93.293,10.583 93.667,12.542 93.667 C 13.429 93.667,13.667 93.883,13.667 94.688 C 13.667 96.872,9.252 96.403,8.083 94.096 L 7.583 93.108 7.500 88.562 C 7.411 83.697,7.436 83.820,6.457 83.507 C 5.044 83.055,5.186 81.830,6.708 81.341 C 7.389 81.123,7.426 81.042,7.562 79.447 C 7.689 77.964,9.196 77.053,10.071 77.929 M182.495 77.827 C 182.663 77.933,182.775 78.433,182.852 79.423 C 182.989 81.183,183.015 81.210,184.674 81.353 C 186.198 81.484,186.500 81.658,186.500 82.405 C 186.500 83.280,186.233 83.456,184.780 83.542 C 182.844 83.655,182.926 83.469,182.866 87.874 C 182.798 92.803,183.118 93.667,185.011 93.667 C 187.376 93.667,186.734 95.866,184.337 95.975 C 180.860 96.132,180.167 94.850,180.167 88.268 C 180.167 83.760,180.189 83.851,179.001 83.545 C 177.697 83.211,177.664 81.745,178.953 81.424 C 179.925 81.183,180.056 80.994,180.178 79.663 C 180.329 78.017,181.424 77.149,182.495 77.827 M23.357 81.485 C 24.333 82.276,23.829 83.638,22.481 83.851 C 20.014 84.241,19.340 85.872,19.336 91.458 C 19.333 95.550,19.294 95.667,17.942 95.667 C 16.641 95.667,16.691 95.938,16.655 88.541 C 16.620 81.177,16.565 81.500,17.850 81.500 C 18.627 81.500,18.674 81.527,19.000 82.167 C 19.412 82.974,19.369 82.971,20.218 82.244 C 21.328 81.294,22.708 80.960,23.357 81.485 M33.054 81.520 C 34.541 82.010,35.673 83.546,35.989 85.500 C 36.361 87.798,36.218 95.112,35.796 95.407 C 35.241 95.796,34.435 95.731,33.864 95.250 C 33.242 94.727,33.254 94.726,32.024 95.361 C 28.529 97.163,25.000 95.368,25.000 91.788 C 25.000 88.684,26.908 87.239,31.873 86.584 C 32.894 86.450,33.230 86.120,33.108 85.370 C 32.830 83.654,30.758 82.867,28.401 83.582 C 26.728 84.089,25.664 83.621,26.136 82.585 C 26.663 81.428,30.832 80.787,33.054 81.520 M49.206 81.495 C 50.030 81.741,50.264 82.184,50.013 83.023 C 49.772 83.828,49.444 83.917,47.920 83.594 C 44.639 82.897,41.977 85.080,41.941 88.500 C 41.900 92.339,44.508 94.298,48.549 93.463 C 49.711 93.223,50.000 93.436,50.000 94.528 C 50.000 96.244,45.025 96.600,42.373 95.075 C 37.812 92.452,37.908 84.982,42.539 82.203 C 44.146 81.239,47.246 80.909,49.206 81.495 M83.261 81.576 C 84.126 81.937,85.090 82.885,85.639 83.917 L 86.083 84.750 86.136 89.804 C 86.197 95.641,86.192 95.667,84.950 95.667 C 83.502 95.667,83.533 95.769,83.457 90.707 C 83.412 87.672,83.323 86.062,83.178 85.660 C 82.211 82.976,78.673 82.901,77.318 85.535 C 77.032 86.092,77.000 86.549,76.996 90.118 C 76.992 94.100,76.879 95.263,76.470 95.522 C 76.101 95.756,74.764 95.683,74.370 95.407 L 74.000 95.148 74.000 88.586 C 74.000 81.185,73.944 81.500,75.253 81.500 C 75.861 81.500,76.069 81.591,76.494 82.042 L 77.005 82.583 77.877 82.099 C 79.598 81.145,81.728 80.938,83.261 81.576 M98.028 81.655 C 98.425 81.847,98.954 82.134,99.204 82.292 C 99.655 82.578,99.662 82.576,100.126 82.020 C 100.636 81.409,101.815 81.231,102.258 81.698 C 102.690 82.153,102.310 96.881,101.837 98.051 C 100.512 101.332,95.224 102.929,91.562 101.156 C 89.856 100.330,90.621 98.325,92.377 99.017 C 95.733 100.340,98.781 99.176,99.506 96.295 C 99.917 94.662,99.345 94.254,97.863 95.125 C 96.623 95.854,93.979 95.812,92.646 95.041 C 87.476 92.053,88.410 82.826,94.026 81.400 C 95.239 81.092,97.111 81.211,98.028 81.655 M120.264 81.439 C 122.282 81.945,123.773 83.844,124.173 86.417 C 124.595 89.133,124.535 89.167,119.296 89.167 C 114.602 89.167,114.343 89.234,114.594 90.386 C 115.139 92.892,117.745 94.280,120.750 93.664 C 122.935 93.217,123.121 93.255,123.272 94.184 C 123.417 95.077,123.000 95.431,121.417 95.761 C 115.392 97.015,111.413 93.939,111.715 88.262 C 111.983 83.203,115.647 80.279,120.264 81.439 M149.207 81.630 C 151.162 82.495,152.344 84.449,152.463 87.012 C 152.569 89.312,152.885 89.167,147.775 89.167 C 142.550 89.167,142.467 89.200,143.095 91.042 C 143.807 93.131,146.415 94.254,149.167 93.656 C 151.226 93.209,151.667 93.359,151.667 94.511 C 151.667 96.086,146.357 96.598,143.547 95.295 C 138.269 92.845,139.074 83.018,144.683 81.430 C 145.931 81.077,148.181 81.177,149.207 81.630 M162.424 81.576 C 163.276 82.428,162.773 83.833,161.616 83.833 C 159.231 83.833,158.337 85.999,158.335 91.782 C 158.333 95.576,158.302 95.667,156.995 95.667 C 155.701 95.667,155.761 95.980,155.659 88.722 C 155.562 81.732,155.573 81.620,156.425 81.458 C 157.169 81.315,157.729 81.554,158.000 82.129 C 158.291 82.747,158.653 82.809,159.099 82.316 C 160.032 81.286,161.751 80.903,162.424 81.576 M220.986 81.428 C 222.202 81.789,223.145 82.704,223.849 84.206 L 224.417 85.417 224.470 90.136 C 224.532 95.635,224.525 95.667,223.239 95.667 C 222.661 95.667,222.389 95.571,222.076 95.258 L 221.667 94.848 221.667 91.099 C 221.667 84.529,220.634 82.727,217.479 83.791 C 215.379 84.499,215.000 85.624,215.000 91.158 C 215.000 95.462,214.994 95.485,213.794 95.620 C 213.127 95.696,212.968 95.650,212.596 95.278 L 212.167 94.848 212.167 88.374 C 212.167 83.561,212.218 81.849,212.367 81.700 C 212.888 81.179,214.667 81.668,214.667 82.333 C 214.667 82.654,215.570 82.496,216.187 82.069 C 217.417 81.217,219.388 80.953,220.986 81.428 M236.180 81.649 C 236.585 81.844,237.121 82.134,237.371 82.292 C 237.822 82.578,237.829 82.576,238.290 82.024 C 238.881 81.315,239.880 81.232,240.379 81.849 C 240.900 82.492,240.736 95.748,240.187 97.401 C 239.081 100.728,236.166 102.248,231.966 101.689 C 229.197 101.320,228.075 100.243,229.243 99.075 L 229.652 98.666 230.534 99.029 C 233.540 100.267,236.831 99.149,237.576 96.639 C 238.165 94.656,237.791 94.238,236.154 95.051 C 231.584 97.323,226.957 93.506,227.410 87.838 C 227.802 82.938,232.292 79.770,236.180 81.649 M259.008 81.623 C 260.788 82.428,262.043 84.275,262.322 86.499 C 262.660 89.193,262.707 89.167,257.576 89.167 C 252.540 89.167,252.431 89.200,252.801 90.608 C 253.471 93.165,255.929 94.271,259.408 93.580 L 260.892 93.286 261.196 93.661 C 263.039 95.937,256.324 97.025,252.947 94.998 C 248.014 92.037,249.134 82.990,254.629 81.403 C 255.751 81.079,258.060 81.195,259.008 81.623 M286.621 81.402 C 288.977 82.030,290.532 84.193,290.785 87.193 C 290.873 88.227,290.850 88.332,290.447 88.735 L 290.015 89.167 285.830 89.167 C 281.274 89.167,281.000 89.215,281.000 90.011 C 281.000 92.758,284.331 94.425,288.015 93.521 C 290.088 93.013,290.681 94.986,288.632 95.573 C 282.045 97.458,277.215 93.580,278.286 87.265 C 279.052 82.751,282.520 80.311,286.621 81.402 M300.500 81.500 C 301.247 82.247,300.784 83.833,299.818 83.833 C 297.416 83.833,296.639 85.529,296.510 91.056 C 296.404 95.556,296.368 95.667,295.007 95.667 C 293.724 95.667,293.750 95.816,293.750 88.508 C 293.750 81.313,293.721 81.500,294.854 81.500 C 295.501 81.500,295.661 81.608,296.330 82.500 L 296.642 82.917 297.196 82.395 C 297.828 81.800,298.364 81.495,299.083 81.321 C 299.913 81.121,300.151 81.151,300.500 81.500 M363.886 81.636 C 365.838 82.500,367.250 84.911,367.250 87.384 C 367.250 89.252,367.480 89.167,362.422 89.167 C 357.260 89.167,357.004 89.272,357.765 91.094 C 358.660 93.236,360.973 94.230,363.750 93.666 C 365.641 93.282,365.615 93.282,365.984 93.650 C 368.281 95.948,360.863 96.991,357.513 94.842 C 354.291 92.774,353.779 86.292,356.592 83.179 C 358.275 81.316,361.582 80.617,363.886 81.636 M377.061 81.512 C 378.047 82.288,377.550 83.629,376.198 83.843 C 375.145 84.010,374.309 84.615,373.700 85.651 L 373.250 86.417 373.167 90.723 C 373.072 95.598,373.052 95.667,371.680 95.667 C 370.367 95.667,370.429 95.978,370.317 88.805 C 370.208 81.836,370.227 81.651,371.085 81.495 C 371.910 81.345,372.351 81.511,372.702 82.106 C 373.108 82.793,373.191 82.797,373.989 82.155 C 375.118 81.248,376.387 80.982,377.061 81.512 M387.801 81.669 C 389.658 82.468,390.819 84.435,390.960 87.022 C 391.083 89.261,391.298 89.167,386.095 89.167 C 381.263 89.167,381.224 89.177,381.385 90.378 C 381.708 92.790,384.522 94.282,387.583 93.665 C 389.480 93.282,389.449 93.282,389.817 93.650 C 391.064 94.898,389.122 96.013,385.667 96.034 C 380.355 96.065,377.358 91.659,378.878 86.053 C 379.919 82.212,384.188 80.114,387.801 81.669 M69.755 81.891 C 70.194 82.517,70.112 94.888,69.667 95.333 C 69.175 95.825,68.104 95.786,67.576 95.258 L 67.167 94.848 67.167 88.539 C 67.167 81.614,67.150 81.732,68.175 81.519 C 68.960 81.356,69.463 81.474,69.755 81.891 M128.008 81.563 C 128.613 81.696,128.765 82.038,130.498 87.167 C 132.104 91.920,132.488 92.271,133.311 89.744 C 133.489 89.197,133.987 87.775,134.417 86.583 C 134.848 85.392,135.349 83.929,135.531 83.333 C 135.984 81.854,136.392 81.462,137.483 81.462 C 138.919 81.462,139.122 82.008,138.324 83.726 C 138.148 84.106,137.434 85.879,136.738 87.667 C 133.439 96.143,133.715 95.667,132.110 95.667 C 130.931 95.667,130.473 95.006,129.338 91.667 C 129.167 91.162,128.676 89.850,128.246 88.750 C 125.556 81.854,125.508 81.654,126.500 81.482 C 127.084 81.381,127.216 81.388,128.008 81.563 M166.859 81.683 C 167.011 81.763,167.328 82.336,167.564 82.956 C 167.799 83.576,168.249 84.758,168.563 85.583 C 168.877 86.408,169.284 87.533,169.467 88.083 C 170.605 91.497,171.253 91.819,171.842 89.264 C 171.950 88.798,172.131 88.266,172.246 88.083 C 172.360 87.899,172.890 86.413,173.423 84.781 C 174.434 81.686,174.511 81.563,175.500 81.493 C 177.396 81.358,177.548 81.618,176.740 83.615 C 176.413 84.422,175.884 85.796,175.565 86.667 C 175.246 87.537,174.841 88.587,174.664 89.000 C 174.280 89.898,172.925 93.426,172.759 93.963 C 171.102 99.316,165.153 104.447,165.095 100.572 L 165.083 99.762 166.250 98.964 C 168.887 97.162,169.563 95.732,168.771 93.633 C 168.242 92.231,166.379 87.545,166.101 86.917 C 165.181 84.839,164.320 82.424,164.364 82.046 C 164.442 81.377,165.877 81.168,166.859 81.683 M207.958 81.802 C 208.317 82.252,208.253 94.961,207.891 95.362 C 207.500 95.794,206.277 95.777,205.833 95.333 C 205.348 94.848,205.309 82.222,205.792 81.791 C 206.341 81.300,207.564 81.306,207.958 81.802 M276.804 82.149 C 276.855 82.683,276.600 83.393,274.163 89.500 C 273.327 91.594,272.957 92.544,272.392 94.046 C 271.875 95.421,271.401 95.748,270.100 95.623 C 269.019 95.519,268.821 95.259,267.879 92.709 C 267.481 91.632,266.967 90.263,266.736 89.667 C 266.505 89.071,266.058 87.871,265.741 87.000 C 265.425 86.129,265.088 85.282,264.993 85.117 C 264.660 84.539,264.000 82.539,264.000 82.108 C 264.000 81.583,264.366 81.457,265.674 81.532 L 266.579 81.583 267.055 82.750 C 267.500 83.842,267.922 85.028,269.396 89.324 C 270.336 92.064,270.731 92.097,271.561 89.500 C 272.699 85.943,274.078 82.208,274.374 81.884 C 275.064 81.128,276.722 81.309,276.804 82.149 M305.025 81.687 C 305.176 81.764,305.415 82.147,305.556 82.539 C 305.698 82.930,306.199 84.262,306.670 85.500 C 307.141 86.737,307.666 88.172,307.836 88.688 C 308.945 92.056,309.269 91.806,311.076 86.190 C 312.592 81.477,312.595 81.472,314.100 81.472 C 315.457 81.472,315.568 81.795,314.857 83.667 C 311.485 92.528,310.300 95.455,309.458 97.000 C 307.054 101.413,303.156 103.585,303.169 100.505 C 303.172 99.752,303.189 99.732,304.624 98.791 C 307.429 96.950,307.763 95.683,306.367 92.167 C 306.094 91.479,305.411 89.754,304.848 88.333 C 304.286 86.912,303.720 85.525,303.591 85.250 C 302.225 82.333,302.139 81.678,303.100 81.487 C 303.649 81.378,304.616 81.478,305.025 81.687 M327.971 81.918 C 328.261 82.286,328.608 83.299,330.286 88.665 C 331.274 91.824,331.464 91.969,331.988 89.967 C 334.034 82.153,334.330 81.500,335.817 81.500 C 337.142 81.500,337.178 81.728,336.282 84.471 C 335.873 85.725,334.996 88.438,334.333 90.500 C 332.767 95.371,332.860 95.145,332.318 95.425 C 331.160 96.023,329.861 95.503,329.590 94.333 C 329.486 93.882,328.032 89.331,327.367 87.375 C 327.050 86.442,326.527 85.739,326.497 86.208 C 326.458 86.842,323.429 95.155,323.157 95.375 C 322.155 96.186,320.623 95.572,320.241 94.206 C 320.094 93.680,319.872 92.950,319.748 92.583 C 319.624 92.217,319.286 91.092,318.997 90.083 C 318.709 89.075,318.366 87.967,318.236 87.622 C 318.107 87.277,317.934 86.714,317.853 86.372 C 317.771 86.030,317.471 84.954,317.186 83.981 C 316.497 81.635,316.545 81.500,318.069 81.500 C 319.246 81.500,319.389 81.692,319.991 84.075 C 320.265 85.161,320.596 86.394,320.726 86.816 C 320.856 87.238,321.168 88.390,321.419 89.375 C 322.007 91.677,322.430 91.646,323.157 89.250 C 325.106 82.822,325.549 81.707,326.218 81.533 C 326.965 81.340,327.631 81.485,327.971 81.918 M117.138 83.430 C 115.595 83.905,114.160 86.187,114.986 86.855 C 115.515 87.284,120.531 87.327,121.130 86.907 C 122.120 86.213,120.713 83.806,119.046 83.343 C 118.262 83.125,118.103 83.133,117.138 83.430 M145.577 83.344 C 143.880 83.838,142.277 86.567,143.428 87.004 C 144.661 87.473,149.511 87.145,149.729 86.578 C 150.364 84.923,147.587 82.759,145.577 83.344 M255.072 83.563 C 253.478 84.305,252.371 86.223,253.165 86.866 C 253.530 87.161,253.799 87.183,256.359 87.136 C 259.794 87.071,259.892 87.023,259.445 85.604 C 258.816 83.608,256.898 82.713,255.072 83.563 M283.743 83.338 C 282.100 83.836,280.499 86.464,281.509 87.005 C 281.990 87.262,287.413 87.155,287.684 86.883 C 289.002 85.562,285.827 82.706,283.743 83.338 M359.905 83.563 C 358.343 84.291,357.212 86.229,357.985 86.855 C 358.598 87.351,363.676 87.324,364.178 86.822 C 365.008 85.992,363.660 83.791,362.046 83.343 C 361.143 83.092,360.852 83.122,359.905 83.563 M384.332 83.322 C 382.392 83.912,380.697 86.392,381.822 86.994 C 382.495 87.354,387.621 87.212,388.011 86.822 C 389.316 85.517,386.361 82.705,384.332 83.322 M95.332 83.482 C 89.988 85.201,91.662 94.833,97.034 93.271 C 100.409 92.290,100.790 85.406,97.559 83.774 C 96.899 83.441,95.877 83.307,95.332 83.482 M233.499 83.482 C 228.333 85.143,229.680 94.420,234.929 93.331 C 238.504 92.589,239.097 85.477,235.726 83.774 C 235.066 83.441,234.043 83.307,233.499 83.482 M29.917 89.083 C 28.038 89.849,27.310 91.158,27.985 92.553 C 28.961 94.569,31.848 94.202,32.992 91.917 C 34.366 89.172,32.933 87.852,29.917 89.083 " stroke="none" fill="#0c0c0c" fill-rule="evenodd"></path>
    </g>
</svg>